{
  "accessors": [
    {
      "bufferView": 0,
      "componentType": 5125,
      "count": 1308,
      "type": "SCALAR"
    },
    {
      "bufferView": 1,
      "componentType": 5126,
      "count": 395,
      "max": [
        0.451544970273972,
        1.0,
        0.493818044662476
      ],
      "min": [
        -0.451545000076294,
        -1.0,
        -0.493818044662476
      ],
      "type": "VEC3"
    },
    {
      "bufferView": 2,
      "componentType": 5126,
      "count": 395,
      "type": "VEC3"
    },
    {
      "bufferView": 3,
      "componentType": 5126,
      "count": 395,
      "type": "VEC2"
    }
  ],
  "asset": {
    "generator": "Substance Painter 2019.3.2",
    "version": "2.0"
  },
  "bufferViews": [
    {
      "buffer": 0,
      "byteLength": 5232,
      "target": 34963
    },
    {
      "buffer": 0,
      "byteLength": 4740,
      "byteOffset": 5232,
      "target": 34962
    },
    {
      "buffer": 0,
      "byteLength": 4740,
      "byteOffset": 9972,
      "target": 34962
    },
    {
      "buffer": 0,
      "byteLength": 3160,
      "byteOffset": 14712,
      "target": 34962
    }
  ],
  "buffers": [
    {
      "byteLength": 17872,
      "uri": "moai3_texture.bin"
    }
  ],
  "images": [
    {
      "uri": "phong2SG_baseColor.png"
    },
    {
      "uri": "phong2SG_occlusionRoughnessMetallic.png"
    },
    {
      "uri": "phong2SG_normal.png"
    }
  ],
  "materials": [
    {
      "alphaMode": "OPAQUE",
      "name": "phong2SG",
      "normalTexture": {
        "index": 2
      },
      "occlusionTexture": {
        "index": 1
      },
      "pbrMetallicRoughness": {
        "baseColorTexture": {
          "index": 0
        },
        "metallicRoughnessTexture": {
          "index": 1
        }
      }
    }
  ],
  "meshes": [
    {
      "name": "moai3 moai3 MOAI",
      "primitives": [
        {
          "attributes": {
            "NORMAL": 2,
            "POSITION": 1,
            "TEXCOORD_0": 3
          },
          "indices": 0,
          "material": 0,
          "mode": 4
        }
      ]
    }
  ],
  "nodes": [
    {
      "children": [
        1
      ],
      "name": "moai_variation3.obj",
      "scale": [
        3.56384205818176,
        3.56384205818176,
        3.56384205818176
      ],
      "translation": [
        -0.0191439390182495,
        3.57297110557556,
        -0.0368944406509399
      ]
    },
    {
      "children": [
        2
      ],
      "name": "g moai3 moai3 MOAI"
    },
    {
      "mesh": 0,
      "name": "moai3 moai3 MOAI"
    }
  ],
  "samplers": [
    {
      "magFilter": 9729,
      "minFilter": 9985,
      "wrapS": 10497,
      "wrapT": 10497
    }
  ],
  "scene": 0,
  "scenes": [
    {
      "name": "Scene",
      "nodes": [
        0
      ]
    }
  ],
  "textures": [
    {
      "sampler": 0,
      "source": 0
    },
    {
      "sampler": 0,
      "source": 1
    },
    {
      "sampler": 0,
      "source": 2
    }
  ]
}