# This file uses centimeters as units for non-parametric coordinates.

mtllib floor.mtl
g default
v -76.000000 -0.000000 76.000000
v -25.333332 -0.000000 76.000000
v 25.333336 -0.000000 76.000000
v 76.000000 -0.000000 76.000000
v -76.000000 -0.000000 25.333332
v -25.333332 -0.000000 25.333332
v 25.333336 -0.000000 25.333332
v 76.000000 -0.000000 25.333332
v -76.000000 0.000000 -25.333336
v -25.333332 0.000000 -25.333336
v 25.333336 0.000000 -25.333336
v 76.000000 0.000000 -25.333336
v -76.000000 0.000000 -76.000000
v -25.333332 0.000000 -76.000000
v 25.333336 0.000000 -76.000000
v 76.000000 0.000000 -76.000000
vt 0.001987 0.001992
vt 0.328452 0.001992
vt 0.660979 0.001992
vt 0.995581 0.001992
vt 0.001987 0.336769
vt 0.334513 0.336769
vt 0.669116 0.336769
vt 0.995581 0.328457
vt 0.001987 0.998008
vt 0.334513 0.998008
vt 0.669116 0.671543
vt 0.995581 0.663234
vt 0.328452 0.998008
vt 0.660979 0.998008
vt 0.669116 0.998008
vt 0.995581 0.998008
vt 0.669116 0.663234
vt 0.660979 0.663234
vt 0.334513 0.671543
vt 0.660979 0.671543
vt 0.995581 0.671543
vt 0.334513 0.663234
vt 0.328452 0.663234
vt 0.001987 0.671543
vt 0.328452 0.671543
vt 0.001987 0.663234
vt 0.669116 0.328457
vt 0.660979 0.328457
vt 0.660979 0.336769
vt 0.995581 0.336769
vt 0.334513 0.328457
vt 0.328452 0.328457
vt 0.328452 0.336769
vt 0.001987 0.328457
vt 0.669116 0.001992
vt 0.334513 0.001992
vn 0.000000 1.000000 0.000000
vn 0.000000 1.000000 0.000000
vn 0.000000 1.000000 0.000000
vn 0.000000 1.000000 0.000000
vn 0.000000 1.000000 0.000000
vn 0.000000 1.000000 0.000000
vn 0.000000 1.000000 0.000000
vn 0.000000 1.000000 0.000000
vn 0.000000 1.000000 0.000000
vn 0.000000 1.000000 0.000000
vn 0.000000 1.000000 0.000000
vn 0.000000 1.000000 0.000000
vn 0.000000 1.000000 0.000000
vn 0.000000 1.000000 0.000000
vn 0.000000 1.000000 0.000000
vn 0.000000 1.000000 0.000000
s 1
g pPlane6
usemtl initialShadingGroup
f 1/1/1 2/2/2 6/32/3 5/34/4
f 2/36/2 3/3/5 7/28/6 6/31/3
f 3/35/5 4/4/7 8/8/8 7/27/6
f 5/5/4 6/33/3 10/23/9 9/26/10
f 6/6/3 7/29/6 11/18/11 10/22/9
f 7/7/6 8/30/8 12/12/12 11/17/11
f 9/9/10 10/24/9 14/25/13 13/13/14
f 10/10/9 11/19/11 15/20/15 14/14/13
f 11/11/11 12/21/12 16/16/16 15/15/15
