{
    "asset": {
        "version": "2.0",
        "generator": "Open Asset Import Library (assimp v3.1.206520482)"
    },
    "accessors": [
        {
            "bufferView": 0,
            "byteOffset": 0,
            "componentType": 5126,
            "count": 5424,
            "type": "VEC3",
            "max": [
                0.29059895873069765,
                1.0,
                0.8717968463897705
            ],
            "min": [
                -0.29059895873069765,
                -1.0,
                -0.8717968463897705
            ]
        },
        {
            "bufferView": 1,
            "byteOffset": 0,
            "componentType": 5126,
            "count": 5424,
            "type": "VEC3",
            "max": [
                1.0,
                1.0,
                1.0
            ],
            "min": [
                -1.0,
                -1.0,
                -1.0
            ]
        },
        {
            "bufferView": 2,
            "byteOffset": 0,
            "componentType": 5126,
            "count": 5424,
            "type": "VEC2",
            "max": [
                0.9926829934120178,
                0.9845420122146606
            ],
            "min": [
                0.014918999746441841,
                0.012422025203704834
            ]
        },
        {
            "bufferView": 3,
            "byteOffset": 0,
            "componentType": 5123,
            "count": 5424,
            "type": "SCALAR",
            "max": [
                5423.0
            ],
            "min": [
                0.0
            ]
        }
    ],
    "buffers": [
        {
            "byteLength": 184416,
            "uri": "shelf_v6_painted.bin"
        }
    ],
    "bufferViews": [
        {
            "buffer": 0,
            "byteOffset": 0,
            "byteLength": 65088,
            "target": 34962
        },
        {
            "buffer": 0,
            "byteOffset": 65088,
            "byteLength": 65088,
            "target": 34962
        },
        {
            "buffer": 0,
            "byteOffset": 130176,
            "byteLength": 43392,
            "target": 34962
        },
        {
            "buffer": 0,
            "byteOffset": 173568,
            "byteLength": 10848,
            "target": 34963
        }
    ],
    "materials": [
        {
            "name": "phong23SG",
            "pbrMetallicRoughness": {
                "baseColorFactor": [
                    0.5,
                    0.5,
                    0.5,
                    1.0
                ],
                "metallicFactor": 0.0,
                "roughnessFactor": 0.8658359050750732
            }
        }
    ],
    "meshes": [
        {
            "name": "shelf_v6_newmap",
            "primitives": [
                {
                    "mode": 4,
                    "material": 0,
                    "indices": 3,
                    "attributes": {
                        "POSITION": 0,
                        "NORMAL": 1,
                        "TEXCOORD_0": 2
                    }
                }
            ]
        }
    ],
    "nodes": [
        {
            "matrix": [
                6.8823370933532719,
                0.0,
                0.0,
                0.0,
                0.0,
                6.8823370933532719,
                0.0,
                0.0,
                0.0,
                0.0,
                6.8823370933532719,
                0.0,
                0.0,
                6.8823370933532719,
                0.0,
                1.0
            ],
            "children": [
                1,
                2
            ]
        },
        {
            "name": "g default"
        },
        {
            "name": "g shelf_v6_newmap",
            "mesh": 0
        }
    ],
    "scenes": [
        {
            "nodes": [
                0
            ]
        }
    ],
    "scene": 0
}