{
  "accessors": [
    {
      "bufferView": 0,
      "componentType": 5125,
      "count": 3168,
      "type": "SCALAR"
    },
    {
      "bufferView": 1,
      "componentType": 5126,
      "count": 1092,
      "max": [
        0.562521994113922,
        0.534054934978485,
        0.999999940395355
      ],
      "min": [
        -0.562521994113922,
        -0.53405499458313,
        -0.999999940395355
      ],
      "type": "VEC3"
    },
    {
      "bufferView": 2,
      "componentType": 5126,
      "count": 1092,
      "type": "VEC3"
    },
    {
      "bufferView": 3,
      "componentType": 5126,
      "count": 1092,
      "type": "VEC2"
    }
  ],
  "asset": {
    "generator": "Substance Painter 2019.3.2",
    "version": "2.0"
  },
  "bufferViews": [
    {
      "buffer": 0,
      "byteLength": 12672,
      "target": 34963
    },
    {
      "buffer": 0,
      "byteLength": 13104,
      "byteOffset": 12672,
      "target": 34962
    },
    {
      "buffer": 0,
      "byteLength": 13104,
      "byteOffset": 25776,
      "target": 34962
    },
    {
      "buffer": 0,
      "byteLength": 8736,
      "byteOffset": 38880,
      "target": 34962
    }
  ],
  "buffers": [
    {
      "byteLength": 47616,
      "uri": "patternedHat_whaleTexture.bin"
    }
  ],
  "images": [
    {
      "uri": "phong3SG_baseColor.png"
    },
    {
      "uri": "phong3SG_occlusionRoughnessMetallic.png"
    },
    {
      "uri": "phong3SG_normal.png"
    }
  ],
  "materials": [
    {
      "alphaMode": "OPAQUE",
      "name": "phong3SG",
      "normalTexture": {
        "index": 2
      },
      "occlusionTexture": {
        "index": 1
      },
      "pbrMetallicRoughness": {
        "baseColorTexture": {
          "index": 0
        },
        "metallicRoughnessTexture": {
          "index": 1
        }
      }
    }
  ],
  "meshes": [
    {
      "name": "patterned_hat_1",
      "primitives": [
        {
          "attributes": {
            "NORMAL": 2,
            "POSITION": 1,
            "TEXCOORD_0": 3
          },
          "indices": 0,
          "material": 0,
          "mode": 4
        }
      ]
    }
  ],
  "nodes": [
    {
      "children": [
        1
      ],
      "name": "patternedHat_whale.obj",
      "scale": [
        3.93766450881958,
        3.93766450881958,
        3.93766450881958
      ],
      "translation": [
        0.0,
        2.30141663551331,
        -0.0802674293518066
      ]
    },
    {
      "children": [
        2
      ],
      "name": "g patterned_hat_1"
    },
    {
      "mesh": 0,
      "name": "patterned_hat_1"
    }
  ],
  "samplers": [
    {
      "magFilter": 9729,
      "minFilter": 9985,
      "wrapS": 10497,
      "wrapT": 10497
    }
  ],
  "scene": 0,
  "scenes": [
    {
      "name": "Scene",
      "nodes": [
        0
      ]
    }
  ],
  "textures": [
    {
      "sampler": 0,
      "source": 0
    },
    {
      "sampler": 0,
      "source": 1
    },
    {
      "sampler": 0,
      "source": 2
    }
  ]
}