# This file uses centimeters as units for non-parametric coordinates.

mtllib cabinet_small.mtl
g default
v -1.994444 13.126736 3.742948
v 1.994445 13.126736 3.742948
v -1.994444 13.126736 -3.725099
v 1.994445 13.126736 -3.725099
v -1.994444 5.285665 3.742948
v 1.994445 5.285665 3.742948
v 1.994445 5.285665 -3.725099
v -1.994444 5.285665 -3.725099
v 1.994445 5.585665 3.442949
v 1.994445 5.585665 -3.425099
v 1.994445 12.826736 -3.425099
v 1.994445 12.826736 3.442949
v -1.994444 5.585665 -3.425099
v -1.994444 5.585665 3.442949
v -1.994444 12.826736 3.442949
v -1.994444 12.826736 -3.425099
v -1.694422 5.585665 3.742948
v 1.694446 5.585665 3.742948
v 1.694446 12.826735 3.742948
v -1.694422 12.826735 3.742948
v -1.694422 12.826735 -3.725099
v 1.694446 12.826735 -3.725099
v 1.694446 5.585665 -3.725099
v -1.694422 5.585665 -3.725099
v -1.694423 13.126736 3.442949
v 1.694446 13.126736 3.442949
v 1.694446 13.126736 -3.425099
v -1.694423 13.126736 -3.425099
v 1.693501 5.585665 -3.424120
v -1.693446 5.585665 -3.424120
v -1.693446 5.585665 3.441968
v 1.693501 5.585665 3.441968
v -1.694925 12.826735 3.444082
v 1.694969 12.826735 3.444082
v -1.694925 12.826735 -3.424995
v 1.694969 12.826735 -3.424995
v -1.994444 1.178468 3.742948
v 1.994445 1.178468 3.742948
v 1.994445 1.178468 -3.725099
v -1.994444 1.178468 -3.725099
v -2.252487 -0.003140 4.007086
v 2.252488 -0.003140 4.007086
v 2.252488 1.178468 4.007086
v -2.252487 1.178468 4.007086
v 2.252488 -0.003140 -3.989902
v 2.252488 1.178468 -3.989902
v -2.252487 1.178468 -3.989902
v -2.252487 -0.003140 -3.989902
v -1.658013 4.406502 1.834003
v 1.658013 4.406502 1.834003
v -1.658013 6.373168 1.834003
v 1.658013 6.373168 1.834003
v -1.658013 6.373168 -1.834003
v 1.658013 6.373168 -1.834003
v -1.658013 4.406502 -1.834003
v 1.658013 4.406502 -1.834003
vt 0.275881 0.497146
vt 0.275881 0.002128
vt 0.383923 0.002128
vt 0.383923 0.497146
vt 0.391814 0.010020
vt 0.391814 0.489255
vt 0.590185 0.002128
vt 0.582293 0.010020
vt 0.590185 0.497146
vt 0.582293 0.489255
vt 0.595021 0.497146
vt 0.595021 0.002128
vt 0.703062 0.002128
vt 0.703062 0.497146
vt 0.710954 0.010020
vt 0.710954 0.489255
vt 0.909324 0.002128
vt 0.901433 0.010020
vt 0.909324 0.497146
vt 0.901433 0.489255
vt 0.952356 0.002022
vt 0.952356 0.481257
vt 0.944465 0.481254
vt 0.944465 0.001992
vt 0.966619 0.001996
vt 0.966619 0.481231
vt 0.958728 0.481260
vt 0.958728 0.001998
vt 0.972991 0.001995
vt 0.980908 0.001995
vt 0.980852 0.192474
vt 0.972991 0.192474
vt 0.930202 0.485154
vt 0.938119 0.485154
vt 0.938119 0.675633
vt 0.930257 0.675633
vt 0.965859 0.486937
vt 0.973777 0.486937
vt 0.973754 0.677416
vt 0.965859 0.677416
vt 0.710908 0.502989
vt 0.718826 0.502989
vt 0.718826 0.693468
vt 0.710931 0.693468
vt 0.020880 0.982527
vt 0.020880 0.473595
vt 0.051962 0.473595
vt 0.051962 0.982527
vt 0.056537 0.982527
vt 0.056537 0.473595
vt 0.087620 0.473595
vt 0.087620 0.982527
vt 0.081546 0.107259
vt 0.081546 0.010771
vt 0.133280 0.010771
vt 0.133280 0.107259
vt 0.138599 0.107259
vt 0.138599 0.010771
vt 0.190333 0.010771
vt 0.190333 0.107259
vt 0.275881 0.502986
vt 0.380810 0.502986
vt 0.372919 0.510878
vt 0.283774 0.510878
vt 0.380810 0.998004
vt 0.372919 0.990113
vt 0.275881 0.998004
vt 0.283774 0.990113
vt 0.481676 0.998008
vt 0.392530 0.998008
vt 0.392556 0.990091
vt 0.481651 0.990091
vt 0.392556 0.510907
vt 0.481651 0.510907
vt 0.392530 0.502990
vt 0.481676 0.502990
vt 0.489567 0.510882
vt 0.489567 0.990117
vt 0.384638 0.990117
vt 0.384638 0.510882
vt 0.260566 0.012462
vt 0.260566 0.101607
vt 0.252704 0.101620
vt 0.252704 0.012448
vt 0.978339 0.680834
vt 0.978339 0.591689
vt 0.986234 0.591675
vt 0.986234 0.680848
vt 0.923817 0.001996
vt 0.923817 0.481231
vt 0.915939 0.481260
vt 0.915939 0.001998
vt 0.930202 0.481227
vt 0.930202 0.001992
vt 0.938081 0.001995
vt 0.938081 0.481257
vt 0.203912 0.480543
vt 0.098983 0.480543
vt 0.092195 0.473595
vt 0.210700 0.473595
vt 0.098983 0.975561
vt 0.092195 0.982527
vt 0.203912 0.975561
vt 0.210700 0.982527
vt 0.794703 0.502641
vt 0.881933 0.502641
vt 0.881933 0.599129
vt 0.794703 0.599129
vt 0.493395 0.502990
vt 0.598324 0.502990
vt 0.598324 0.611031
vt 0.493395 0.611031
vt 0.590433 0.618923
vt 0.501288 0.618923
vt 0.598324 0.817293
vt 0.590433 0.809402
vt 0.493395 0.817293
vt 0.501288 0.809402
vt 0.602153 0.709251
vt 0.707082 0.709251
vt 0.707082 0.817292
vt 0.602153 0.817292
vt 0.610045 0.701359
vt 0.699190 0.701359
vt 0.602153 0.502989
vt 0.610045 0.510880
vt 0.707082 0.502989
vt 0.699190 0.510880
vt 0.271293 0.108736
vt 0.271293 0.197882
vt 0.263401 0.197895
vt 0.263401 0.108722
vt 0.250921 0.205014
vt 0.250921 0.115869
vt 0.258812 0.115855
vt 0.258812 0.205027
vt 0.979126 0.388591
vt 0.971208 0.388591
vt 0.971208 0.198112
vt 0.979087 0.198112
vt 0.988039 0.584707
vt 0.980122 0.584707
vt 0.980161 0.394228
vt 0.988039 0.394228
vt 0.944465 0.485154
vt 0.952381 0.485154
vt 0.952381 0.675633
vt 0.944503 0.675633
vt 0.915939 0.486941
vt 0.923857 0.486941
vt 0.923818 0.677420
vt 0.915939 0.677420
vt 0.031788 0.456828
vt 0.031788 0.338323
vt 0.062871 0.338323
vt 0.062871 0.456828
vt 0.079579 0.455095
vt 0.079579 0.336590
vt 0.110662 0.336590
vt 0.110662 0.455095
vt 0.780440 0.795456
vt 0.780440 0.708227
vt 0.832174 0.708227
vt 0.832174 0.795456
vt 0.170691 0.303584
vt 0.170691 0.216355
vt 0.222425 0.216355
vt 0.222425 0.303584
vn 0.000000 0.000000 1.000000
vn 0.000000 0.000000 1.000000
vn -0.000000 0.000000 1.000000
vn 0.000000 0.000000 1.000000
vn 1.000000 0.000000 0.000000
vn 1.000000 0.000000 0.000000
vn 1.000000 -0.000000 0.000000
vn 1.000000 -0.000000 0.000000
vn -0.000000 0.000000 -1.000000
vn 0.000000 0.000000 -1.000000
vn 0.000000 0.000000 -1.000000
vn 0.000000 0.000000 -1.000000
vn -1.000000 0.000000 0.000000
vn -1.000000 0.000000 0.000000
vn -1.000000 0.000000 0.000000
vn -1.000000 0.000000 0.000000
vn 1.000000 -0.000000 0.000000
vn 1.000000 -0.000000 0.000000
vn 1.000000 0.000000 0.000000
vn 1.000000 0.000000 0.000000
vn 1.000000 0.000000 0.000000
vn 1.000000 0.000000 0.000000
vn -1.000000 0.000000 0.000000
vn -1.000000 0.000000 0.000000
vn -1.000000 -0.000000 0.000000
vn -1.000000 -0.000000 0.000000
vn -1.000000 -0.000000 0.000000
vn -1.000000 -0.000000 0.000000
vn -0.000000 0.000000 1.000000
vn 0.000000 0.000000 1.000000
vn -0.000000 0.000000 1.000000
vn -0.000000 0.000000 1.000000
vn 0.000000 0.000000 1.000000
vn 0.000000 0.000000 1.000000
vn -0.000000 0.000000 -1.000000
vn 0.000000 0.000000 -1.000000
vn 0.000000 0.000000 -1.000000
vn -0.000000 0.000000 -1.000000
vn 0.000000 0.000000 -1.000000
vn -0.000000 0.000000 -1.000000
vn 0.000000 1.000000 0.000000
vn 0.000000 1.000000 0.000000
vn 0.000000 1.000000 0.000000
vn 0.000000 1.000000 0.000000
vn 0.000000 1.000000 -0.000000
vn 0.000000 1.000000 -0.000000
vn 0.000000 1.000000 -0.000000
vn 0.000000 1.000000 -0.000000
vn 0.000000 1.000000 -0.000001
vn 0.000000 1.000000 -0.000001
vn 0.000000 1.000000 -0.000001
vn 0.000000 1.000000 -0.000001
vn 0.000000 1.000000 -0.000000
vn 0.000000 1.000000 -0.000000
vn 0.000000 1.000000 -0.000000
vn 0.000000 1.000000 -0.000000
vn 0.000000 1.000000 0.000000
vn 0.000000 1.000000 0.000000
vn 0.000000 1.000000 0.000000
vn 0.000000 1.000000 0.000000
vn 0.000000 1.000000 0.000000
vn 0.000000 1.000000 0.000000
vn 0.000000 1.000000 0.000000
vn 0.000000 1.000000 0.000000
vn 0.000000 1.000000 0.000000
vn 0.000000 1.000000 0.000000
vn 0.000000 1.000000 0.000000
vn 0.000000 1.000000 0.000000
vn 0.000000 -1.000000 0.000003
vn 0.000000 -1.000000 0.000003
vn 0.000000 -1.000000 0.000003
vn 0.000000 -1.000000 0.000003
vn 0.000000 -1.000000 -0.000002
vn 0.000000 -1.000000 -0.000002
vn 0.000000 -1.000000 -0.000002
vn 0.000000 -1.000000 -0.000002
vn 0.000003 -1.000000 0.000000
vn 0.000003 -1.000000 0.000000
vn 0.000003 -1.000000 0.000000
vn 0.000003 -1.000000 0.000000
vn -0.000003 -1.000000 0.000000
vn -0.000003 -1.000000 0.000000
vn -0.000003 -1.000000 0.000000
vn -0.000003 -1.000000 0.000000
vn -0.999999 -0.001744 0.000000
vn -0.999999 -0.001744 0.000000
vn -0.999998 -0.001744 0.000000
vn -0.999999 -0.001744 0.000000
vn 0.000000 0.000347 1.000000
vn 0.000000 0.000347 1.000000
vn 0.000000 0.000347 1.000000
vn 0.000000 0.000347 1.000000
vn 0.999999 -0.001674 0.000000
vn 0.999999 -0.001674 0.000000
vn 0.999999 -0.001674 0.000000
vn 0.999999 -0.001674 0.000000
vn 0.000000 -0.003777 -0.999993
vn 0.000000 -0.003777 -0.999993
vn 0.000000 -0.003777 -0.999993
vn 0.000000 -0.003777 -0.999993
vn 1.000000 0.000102 0.000788
vn 1.000000 0.000102 0.000788
vn 1.000000 0.000102 0.000788
vn 1.000000 0.000102 0.000788
vn 0.000254 0.000146 -1.000000
vn 0.000254 0.000146 -1.000000
vn 0.000254 0.000146 -1.000000
vn 0.000254 0.000146 -1.000000
vn -0.000254 0.000146 -1.000000
vn -0.000254 0.000146 -1.000000
vn -0.000254 0.000146 -1.000000
vn -0.000254 0.000146 -1.000000
vn -1.000000 0.000101 0.000704
vn -1.000000 0.000101 0.000704
vn -1.000000 0.000101 0.000704
vn -1.000000 0.000101 0.000704
vn 0.001804 0.000060 0.999998
vn 0.001804 0.000060 0.999998
vn 0.001804 0.000060 0.999998
vn 0.001804 0.000060 0.999998
vn -1.000000 0.000101 -0.000702
vn -1.000000 0.000101 -0.000702
vn -1.000000 0.000101 -0.000702
vn -1.000000 0.000101 -0.000702
vn -0.001804 0.000060 0.999998
vn -0.001804 0.000060 0.999998
vn -0.001804 0.000060 0.999998
vn -0.001804 0.000060 0.999998
vn 1.000000 0.000102 -0.000787
vn 1.000000 0.000102 -0.000787
vn 1.000000 0.000102 -0.000787
vn 1.000000 0.000102 -0.000787
vn 0.000000 0.000000 1.000000
vn 0.000000 0.000000 1.000000
vn 0.000000 0.000000 1.000000
vn 0.000000 0.000000 1.000000
vn 1.000000 0.000000 0.000000
vn 1.000000 0.000000 0.000000
vn 1.000000 0.000000 0.000000
vn 1.000000 0.000000 0.000000
vn 0.000000 0.000000 -1.000000
vn 0.000000 0.000000 -1.000000
vn 0.000000 0.000000 -1.000000
vn 0.000000 0.000000 -1.000000
vn -1.000000 0.000000 0.000000
vn -1.000000 0.000000 0.000000
vn -1.000000 0.000000 0.000000
vn -1.000000 0.000000 0.000000
vn 0.000000 1.000000 0.000000
vn 0.000000 1.000000 0.000000
vn 0.000000 1.000000 0.000000
vn 0.000000 1.000000 0.000000
vn 0.000000 1.000000 0.000000
vn 0.000000 1.000000 0.000000
vn 0.000000 1.000000 0.000000
vn 0.000000 1.000000 0.000000
vn 0.000000 1.000000 -0.000000
vn 0.000000 1.000000 -0.000000
vn 0.000000 1.000000 -0.000000
vn 0.000000 1.000000 -0.000000
vn 0.000000 1.000000 0.000000
vn 0.000000 1.000000 0.000000
vn 0.000000 1.000000 0.000000
vn 0.000000 1.000000 0.000000
vn 0.000000 0.000000 1.000000
vn 0.000000 0.000000 1.000000
vn 0.000000 0.000000 1.000000
vn 0.000000 0.000000 1.000000
vn 0.000000 1.000000 0.000000
vn 0.000000 1.000000 0.000000
vn 0.000000 1.000000 0.000000
vn 0.000000 1.000000 0.000000
vn 0.000000 0.000000 -1.000000
vn 0.000000 0.000000 -1.000000
vn 0.000000 0.000000 -1.000000
vn 0.000000 0.000000 -1.000000
vn 1.000000 0.000000 0.000000
vn 1.000000 0.000000 0.000000
vn 1.000000 0.000000 0.000000
vn 1.000000 0.000000 0.000000
vn -1.000000 0.000000 0.000000
vn -1.000000 0.000000 0.000000
vn -1.000000 0.000000 0.000000
vn -1.000000 0.000000 0.000000
s 1
g cabinet_v2_comb1
usemtl initialShadingGroup
f 37/109/1 38/110/2 6/111/3 5/112/4
s 2
f 38/1/5 39/2/6 7/3/7 6/4/8
s 3
f 8/119/9 7/120/10 39/121/11 40/122/12
s 4
f 40/11/13 37/12/14 5/13/15 8/14/16
s 2
f 6/4/8 7/3/7 10/5/17 9/6/18
f 7/3/7 4/7/19 11/8/20 10/5/17
f 4/7/19 2/9/21 12/10/22 11/8/20
f 2/9/21 6/4/8 9/6/18 12/10/22
s 4
f 8/14/16 5/13/15 14/15/23 13/16/24
f 5/13/15 1/17/25 15/18/26 14/15/23
f 1/17/25 3/19/27 16/20/28 15/18/26
f 3/19/27 8/14/16 13/16/24 16/20/28
s 1
f 5/112/4 6/111/3 18/113/29 17/114/30
f 6/111/3 2/115/31 19/116/32 18/113/29
f 2/115/31 1/117/33 20/118/34 19/116/32
f 1/117/33 5/112/4 17/114/30 20/118/34
s 3
f 3/125/35 4/127/36 22/128/37 21/126/38
f 4/127/36 7/120/10 23/124/39 22/128/37
f 7/120/10 8/119/9 24/123/40 23/124/39
f 8/119/9 3/125/35 21/126/38 24/123/40
s 6
f 1/61/41 2/62/42 26/63/43 25/64/44
f 2/62/42 4/65/45 27/66/46 26/63/43
f 4/65/45 3/67/47 28/68/48 27/66/46
f 3/67/47 1/61/41 25/64/44 28/68/48
s off
f 23/69/49 24/70/50 30/71/51 29/72/52
f 17/75/53 18/76/54 32/74/55 31/73/56
f 9/77/57 10/78/58 29/72/59 32/74/60
f 13/79/61 14/80/62 31/73/63 30/71/64
f 31/73/65 32/74/66 29/72/67 30/71/68
f 19/81/69 20/82/70 33/83/71 34/84/72
f 21/85/73 22/86/74 36/87/75 35/88/76
f 11/89/77 12/90/78 34/91/79 36/92/80
f 15/93/81 16/94/82 35/95/83 33/96/84
f 26/21/85 27/22/86 36/23/87 34/24/88
f 27/129/89 28/130/90 35/131/91 36/132/92
f 28/25/93 25/26/94 33/27/95 35/28/96
f 25/133/97 26/134/98 34/135/99 33/136/100
f 17/29/101 31/30/102 33/31/103 20/32/104
f 31/137/105 14/138/106 15/139/107 33/140/108
f 9/141/109 32/142/110 34/143/111 12/144/112
f 32/33/113 18/34/114 19/35/115 34/36/116
f 29/145/117 10/146/118 11/147/119 36/148/120
f 23/37/121 29/38/122 36/39/123 22/40/124
f 13/149/125 30/150/126 35/151/127 16/152/128
f 30/41/129 24/42/130 21/43/131 35/44/132
f 41/153/133 42/154/134 43/155/135 44/156/136
f 42/45/137 45/46/138 46/47/139 43/48/140
f 47/157/141 46/158/142 45/159/143 48/160/144
f 48/49/145 41/50/146 44/51/147 47/52/148
f 38/97/149 37/98/150 44/99/151 43/100/152
f 39/103/153 38/97/154 43/100/155 46/104/156
f 40/101/157 39/103/158 46/104/159 47/102/160
f 37/98/161 40/101/162 47/102/163 44/99/164
f 49/161/165 50/162/166 52/163/167 51/164/168
f 51/105/169 52/106/170 54/107/171 53/108/172
f 53/165/173 54/166/174 56/167/175 55/168/176
f 50/53/177 56/54/178 54/55/179 52/56/180
f 55/57/181 49/58/182 51/59/183 53/60/184
