{
  "accessors": [
    {
      "bufferView": 0,
      "componentType": 5125,
      "count": 528,
      "type": "SCALAR"
    },
    {
      "bufferView": 1,
      "componentType": 5126,
      "count": 288,
      "max": [
        0.447966992855072,
        1.0,
        0.447966992855072
      ],
      "min": [
        -0.447966992855072,
        -1.0,
        -0.447966992855072
      ],
      "type": "VEC3"
    },
    {
      "bufferView": 2,
      "componentType": 5126,
      "count": 288,
      "type": "VEC3"
    },
    {
      "bufferView": 3,
      "componentType": 5126,
      "count": 288,
      "type": "VEC2"
    }
  ],
  "asset": {
    "generator": "Substance Painter 2019.3.2",
    "version": "2.0"
  },
  "bufferViews": [
    {
      "buffer": 0,
      "byteLength": 2112,
      "target": 34963
    },
    {
      "buffer": 0,
      "byteLength": 3456,
      "byteOffset": 2112,
      "target": 34962
    },
    {
      "buffer": 0,
      "byteLength": 3456,
      "byteOffset": 5568,
      "target": 34962
    },
    {
      "buffer": 0,
      "byteLength": 2304,
      "byteOffset": 9024,
      "target": 34962
    }
  ],
  "buffers": [
    {
      "byteLength": 11328,
      "uri": "canopicjar_isis_texture.bin"
    }
  ],
  "images": [
    {
      "uri": "initialShadingGroup_baseColor.png"
    },
    {
      "uri": "initialShadingGroup_occlusionRoughnessMetallic.png"
    },
    {
      "uri": "initialShadingGroup_normal.png"
    }
  ],
  "materials": [
    {
      "alphaMode": "OPAQUE",
      "name": "initialShadingGroup",
      "normalTexture": {
        "index": 2
      },
      "occlusionTexture": {
        "index": 1
      },
      "pbrMetallicRoughness": {
        "baseColorTexture": {
          "index": 0
        },
        "metallicRoughnessTexture": {
          "index": 1
        }
      }
    }
  ],
  "meshes": [
    {
      "name": "canopicjar_isis CANOPIC_JARS",
      "primitives": [
        {
          "attributes": {
            "NORMAL": 2,
            "POSITION": 1,
            "TEXCOORD_0": 3
          },
          "indices": 0,
          "material": 0,
          "mode": 4
        }
      ]
    }
  ],
  "nodes": [
    {
      "children": [
        1
      ],
      "name": "canopicJar_Isis.obj",
      "scale": [
        3.24596905708313,
        3.24596905708313,
        3.24596905708313
      ],
      "translation": [
        0.0,
        3.25784707069397,
        0.0
      ]
    },
    {
      "children": [
        2
      ],
      "name": "g canopicjar_isis CANOPIC_JARS"
    },
    {
      "mesh": 0,
      "name": "canopicjar_isis CANOPIC_JARS"
    }
  ],
  "samplers": [
    {
      "magFilter": 9729,
      "minFilter": 9985,
      "wrapS": 10497,
      "wrapT": 10497
    }
  ],
  "scene": 0,
  "scenes": [
    {
      "name": "Scene",
      "nodes": [
        0
      ]
    }
  ],
  "textures": [
    {
      "sampler": 0,
      "source": 0
    },
    {
      "sampler": 0,
      "source": 1
    },
    {
      "sampler": 0,
      "source": 2
    }
  ]
}