# This file uses centimeters as units for non-parametric coordinates.

mtllib canopicJar_Anubis.mtl
g default
v 0.707107 0.011878 -0.707107
v 0.000000 0.011878 -1.000000
v -0.707107 0.011878 -0.707107
v -1.000000 0.011878 0.000000
v -0.707107 0.011878 0.707107
v 0.000000 0.011878 1.000000
v 0.707107 0.011878 0.707107
v 1.000000 0.011878 0.000000
v 1.028195 3.967390 -1.028195
v -0.000000 3.967390 -1.454087
v -1.028195 3.967390 -1.028195
v -1.454087 3.967390 -0.000000
v -1.028195 3.967390 1.028195
v -0.000000 3.967390 1.454087
v 1.028195 3.967390 1.028195
v 1.454087 3.967390 -0.000000
v 0.000000 0.011878 0.000000
v 0.770936 4.528656 -0.770936
v -0.000000 4.528656 -1.090269
v -0.770936 4.528656 -0.770936
v -1.090269 4.528656 0.000000
v -0.770936 4.528656 0.770936
v -0.000000 4.528656 0.932616
v 0.770937 4.528656 0.770937
v 1.090269 4.528656 0.000000
v 0.636131 6.255710 -0.649914
v 0.000000 6.255710 -0.913408
v -0.636131 6.255710 -0.649914
v -0.899624 6.255710 -0.013784
v -0.798156 6.255710 0.472827
v 0.000000 6.255710 0.755755
v 0.798156 6.255710 0.472827
v 0.899625 6.255710 -0.013784
v 0.415861 6.503817 -0.415861
v 0.000000 6.503817 -0.588117
v 0.000000 6.503817 0.000000
v -0.415861 6.503817 -0.415861
v -0.588117 6.503817 0.000000
v -0.415861 6.503817 0.171333
v 0.000000 6.503817 0.588117
v 0.415862 6.503817 0.171333
v 0.588117 6.503817 0.000000
v 0.820999 5.228917 -0.815880
v -0.000000 5.228917 -1.155949
v -0.820999 5.228917 -0.815880
v -1.161067 5.228917 0.005119
v -0.674758 5.228917 0.826117
v -0.000000 5.228917 0.904041
v 0.674758 5.228917 0.826117
v 1.161067 5.228917 0.005119
v -0.162812 4.528656 0.908969
v -0.282790 5.228917 0.812566
v -0.452478 6.255710 0.657966
v -0.207931 6.503817 0.501989
v 0.162812 4.528656 0.908969
v 0.282790 5.228917 0.812566
v 0.452478 6.255710 0.657967
v 0.207931 6.503817 0.501989
v 0.770936 5.823949 -0.770936
v 1.090269 5.823949 -0.000000
v 0.655819 5.823949 0.631044
v 0.548366 5.823949 0.739489
v -0.000000 5.489508 0.839222
v -0.548366 5.823949 0.739489
v -0.655819 5.823949 0.631044
v -1.090269 5.823949 0.000000
v -0.770936 5.823949 -0.770936
v -0.000000 5.823949 -1.090269
v 0.879039 4.621005 -0.867985
v -0.000000 4.621005 -1.232095
v -0.879039 4.621005 -0.867986
v -1.243148 4.621005 0.011053
v -0.879039 4.621005 0.890092
v -0.185839 4.621005 1.072147
v -0.000000 4.621005 1.074442
v 0.185839 4.621005 1.072147
v 0.879039 4.621005 0.890092
v 1.243149 4.621005 0.011053
v 0.271555 5.823949 0.927242
v 0.000000 5.583899 0.902947
v 0.168691 6.103134 0.924131
v 0.000000 6.158640 0.896785
v -0.271555 5.823949 0.927242
v -0.168691 6.103134 0.924130
v 0.134071 5.823949 1.526722
v 0.000000 5.752354 1.538493
v 0.083285 6.005099 1.614114
v 0.000000 6.049730 1.623514
v -0.134071 5.823949 1.526722
v -0.083285 6.005099 1.614114
v -0.839362 6.691469 0.344709
v -0.605969 6.670737 0.402497
v -0.503303 7.084678 0.555594
v -0.640748 7.084678 0.469466
v 0.596048 6.670737 0.402497
v 0.503303 7.084678 0.555594
v 0.823476 6.672664 0.344709
v 0.616160 7.084678 0.469466
vt 0.134953 0.664314
vt 0.230951 0.664314
vt 0.230951 0.935840
vt 0.091361 0.935840
vt 0.326950 0.664314
vt 0.370542 0.935840
vt 0.230951 0.974368
vt 0.126287 0.974368
vt 0.335616 0.974368
vt 0.134953 0.664314
vt 0.230951 0.664314
vt 0.230951 0.935840
vt 0.091361 0.935840
vt 0.326950 0.664314
vt 0.370542 0.935840
vt 0.230951 0.974368
vt 0.126287 0.974368
vt 0.335616 0.974368
vt 0.492643 0.082210
vt 0.654832 0.082200
vt 0.653824 0.141636
vt 0.501526 0.141644
vt 0.482346 0.021488
vt 0.656001 0.021478
vt 0.817020 0.082191
vt 0.778487 0.141629
vt 0.651103 0.184763
vt 0.525436 0.184770
vt 0.829655 0.021468
vt 0.747233 0.184757
vt 0.799910 0.141627
vt 0.783808 0.184755
vt 0.837001 0.141625
vt 0.836387 0.169512
vt 0.955428 0.141619
vt 0.972693 0.159712
vt 0.791753 0.263525
vt 0.953941 0.263491
vt 0.945075 0.322928
vt 0.792777 0.322960
vt 0.790568 0.202803
vt 0.964222 0.202767
vt 0.921176 0.366060
vt 0.795509 0.366087
vt 0.629565 0.263559
vt 0.668114 0.322986
vt 0.616914 0.202840
vt 0.699379 0.366107
vt 0.662804 0.366114
vt 0.646691 0.322991
vt 0.610220 0.350885
vt 0.609600 0.322999
vt 0.473912 0.341121
vt 0.491173 0.323023
vt 0.508189 0.812144
vt 0.546118 0.827855
vt 0.508189 0.865784
vt 0.561829 0.865784
vt 0.470259 0.827855
vt 0.546118 0.903713
vt 0.454548 0.865784
vt 0.508189 0.919424
vt 0.470259 0.903713
vt 0.145491 0.168983
vt 0.234803 0.131796
vt 0.235035 0.258199
vt 0.098057 0.118765
vt 0.234675 0.061882
vt 0.324251 0.168655
vt 0.108633 0.258431
vt 0.069036 0.092808
vt 0.234605 0.023870
vt 0.371501 0.118263
vt 0.041676 0.255591
vt 0.361438 0.257967
vt 0.145723 0.295187
vt 0.400426 0.092199
vt 0.428384 0.254881
vt 0.063676 0.360137
vt 0.324483 0.294859
vt 0.235267 0.384601
vt 0.190543 0.366172
vt 0.406767 0.359507
vt 0.279923 0.366008
vt 0.235333 0.420631
vt 0.138045 0.399792
vt 0.127081 0.377809
vt 0.102791 0.359343
vt 0.372935 0.358847
vt 0.343428 0.377412
vt 0.332545 0.399435
vt 0.235389 0.450942
vt 0.199144 0.456886
vt 0.271656 0.456753
vt 0.235676 0.607136
vt 0.217772 0.605149
vt 0.253572 0.605083
vt 0.455690 0.811719
vt 0.432219 0.868385
vt 0.421794 0.868385
vt 0.448557 0.803774
vt 0.455690 0.925050
vt 0.448557 0.932996
vt 0.512356 0.788248
vt 0.513168 0.777011
vt 0.512356 0.948521
vt 0.513168 0.959758
vt 0.569021 0.811719
vt 0.577779 0.803774
vt 0.569021 0.925050
vt 0.577779 0.932996
vt 0.591161 0.854725
vt 0.579167 0.856418
vt 0.579167 0.880352
vt 0.591161 0.882044
vt 0.580905 0.868385
vt 0.591329 0.868385
vt 0.941478 0.848919
vt 0.935554 0.913034
vt 0.794072 0.880153
vt 0.791384 0.848481
vt 0.956528 0.848963
vt 0.979704 0.978537
vt 0.773468 0.868099
vt 0.771305 0.848423
vt 0.935928 0.784770
vt 0.794257 0.816827
vt 0.980460 0.719526
vt 0.773583 0.828760
vt 0.135004 0.664295
vt 0.231002 0.664313
vt 0.230951 0.935839
vt 0.091361 0.935813
vt 0.327001 0.664331
vt 0.370542 0.935866
vt 0.230944 0.974367
vt 0.126280 0.974347
vt 0.335609 0.974387
vt 0.039158 0.600899
vt 0.060588 0.467415
vt 0.107782 0.467415
vt 0.107782 0.600899
vt 0.154976 0.467415
vt 0.176406 0.600899
vt 0.096916 0.619839
vt 0.056328 0.619839
vt 0.107782 0.619839
vt 0.118648 0.619839
vt 0.159236 0.619839
vt 0.520149 0.467564
vt 0.736185 0.467555
vt 0.736189 0.546723
vt 0.533326 0.546732
vt 0.504873 0.386682
vt 0.736182 0.386673
vt 0.952222 0.467546
vt 0.939052 0.546715
vt 0.967491 0.386663
vt 0.650688 0.637635
vt 0.741745 0.637641
vt 0.680046 0.707529
vt 0.655084 0.707527
vt 0.603238 0.566227
vt 0.764271 0.566237
vt 0.807436 0.668254
vt 0.807438 0.637645
vt 0.807443 0.566240
vt 0.873132 0.637649
vt 0.934822 0.707545
vt 0.850614 0.566243
vt 0.959784 0.707546
vt 0.964188 0.637655
vt 1.011648 0.566253
vt 0.651341 0.831807
vt 0.682757 0.797383
vt 0.726772 0.812391
vt 0.707400 0.831793
vt 0.626046 0.794936
vt 0.674768 0.746139
vt 0.726945 0.729300
vt 0.708930 0.953468
vt 0.693552 0.913296
vt 0.723979 0.883290
vt 0.723965 0.938513
vt 0.630664 0.953480
vt 0.646620 0.904364
vt 0.692671 0.858560
vt 0.452096 0.621021
vt 0.425222 0.699118
vt 0.384067 0.678543
vt 0.376165 0.621399
vt 0.395218 0.585375
vt 0.372270 0.506036
vt 0.445244 0.506028
vt 0.433897 0.565283
vn 0.380549 -0.105469 -0.918727
vn 0.380549 -0.105469 -0.918727
vn 0.380549 -0.105469 -0.918727
vn 0.380549 -0.105469 -0.918727
vn -0.380549 -0.105469 -0.918727
vn -0.380549 -0.105469 -0.918727
vn -0.380549 -0.105469 -0.918727
vn -0.380549 -0.105469 -0.918727
vn -0.918727 -0.105469 -0.380549
vn -0.918727 -0.105469 -0.380549
vn -0.918727 -0.105469 -0.380549
vn -0.918727 -0.105469 -0.380549
vn -0.918727 -0.105469 0.380549
vn -0.918727 -0.105469 0.380549
vn -0.918727 -0.105469 0.380549
vn -0.918727 -0.105469 0.380549
vn -0.380549 -0.105469 0.918727
vn -0.380549 -0.105469 0.918727
vn -0.380549 -0.105469 0.918727
vn -0.380549 -0.105469 0.918727
vn 0.380549 -0.105469 0.918727
vn 0.380549 -0.105469 0.918727
vn 0.380549 -0.105469 0.918727
vn 0.380549 -0.105469 0.918727
vn 0.918727 -0.105469 0.380549
vn 0.918727 -0.105469 0.380549
vn 0.918727 -0.105469 0.380549
vn 0.918727 -0.105469 0.380549
vn 0.918727 -0.105469 -0.380549
vn 0.918727 -0.105469 -0.380549
vn 0.918727 -0.105469 -0.380549
vn 0.918727 -0.105469 -0.380549
vn 0.000000 -1.000000 0.000000
vn 0.000000 -1.000000 0.000000
vn 0.000000 -1.000000 0.000000
vn 0.000000 -1.000000 0.000000
vn 0.000000 -1.000000 0.000000
vn 0.000000 -1.000000 0.000000
vn 0.000000 -1.000000 0.000000
vn 0.000000 -1.000000 0.000000
vn 0.000000 -1.000000 0.000000
vn 0.000000 1.000000 -0.000001
vn 0.000000 1.000000 0.000000
vn 0.000000 1.000000 0.000000
vn 0.000000 1.000000 0.000002
vn 0.000000 1.000000 0.000002
vn 0.000000 1.000000 -0.000002
vn 0.000000 1.000000 0.000000
vn 0.000000 1.000000 0.000000
vn 0.000000 1.000000 0.000000
vn 0.000000 1.000000 0.000002
vn 0.000000 1.000000 -0.000001
vn 0.328312 0.513782 -0.792615
vn 0.328312 0.513782 -0.792615
vn 0.328312 0.513782 -0.792615
vn 0.328312 0.513782 -0.792615
vn -0.328312 0.513782 -0.792615
vn -0.328312 0.513782 -0.792615
vn -0.328312 0.513782 -0.792615
vn -0.328312 0.513782 -0.792615
vn -0.792615 0.513782 -0.328312
vn -0.792615 0.513782 -0.328312
vn -0.792615 0.513782 -0.328312
vn -0.792615 0.513782 -0.328312
vn -0.792615 0.513782 0.328312
vn -0.792615 0.513782 0.328312
vn -0.792615 0.513782 0.328312
vn -0.792615 0.513782 0.328312
vn -0.251585 0.585894 0.770347
vn -0.251585 0.585894 0.770347
vn -0.251585 0.585894 0.770347
vn -0.251585 0.585894 0.770347
vn -0.251585 0.585894 0.770347
vn 0.251585 0.585894 0.770347
vn 0.251585 0.585894 0.770347
vn 0.251585 0.585894 0.770347
vn 0.251585 0.585894 0.770347
vn 0.251585 0.585894 0.770347
vn 0.792615 0.513782 0.328312
vn 0.792615 0.513782 0.328312
vn 0.792615 0.513782 0.328312
vn 0.792615 0.513782 0.328312
vn 0.792615 0.513782 -0.328312
vn 0.792615 0.513782 -0.328312
vn 0.792615 0.513782 -0.328312
vn 0.792615 0.513782 -0.328312
vn 0.380415 0.108727 -0.918402
vn 0.380416 0.108698 -0.918405
vn 0.375108 0.197989 -0.905591
vn 0.375200 0.196801 -0.905812
vn -0.380416 0.108698 -0.918405
vn -0.380415 0.108727 -0.918403
vn -0.375200 0.196801 -0.905812
vn -0.375108 0.197989 -0.905591
vn -0.917902 0.113575 -0.380207
vn -0.917894 0.113650 -0.380204
vn -0.904338 0.204587 -0.374589
vn -0.903761 0.207555 -0.374350
vn -0.856106 0.195459 0.478413
vn -0.856587 0.196535 0.477109
vn -0.850082 0.148113 0.505394
vn -0.853805 0.147130 0.499369
vn -0.157451 0.243839 0.956949
vn -0.168465 0.221518 0.960494
vn -0.302054 0.176087 0.936887
vn -0.376848 0.193836 0.905767
vn 0.186562 0.211849 0.959330
vn 0.168465 0.221518 0.960494
vn 0.302053 0.176086 0.936887
vn 0.184567 0.100282 0.977691
vn 0.856587 0.196535 0.477109
vn 0.856106 0.195459 0.478413
vn 0.853805 0.147130 0.499369
vn 0.850082 0.148113 0.505394
vn 0.917893 0.113650 -0.380204
vn 0.917901 0.113575 -0.380208
vn 0.903760 0.207555 -0.374350
vn 0.904338 0.204587 -0.374589
vn 0.243632 0.771160 -0.588180
vn 0.243632 0.771160 -0.588180
vn 0.243632 0.771160 -0.588180
vn 0.243632 0.771160 -0.588180
vn -0.243632 0.771159 -0.588182
vn -0.243632 0.771159 -0.588182
vn -0.243632 0.771159 -0.588182
vn -0.243632 0.771159 -0.588182
vn -0.596947 0.763226 -0.247264
vn -0.596947 0.763226 -0.247264
vn -0.596947 0.763226 -0.247264
vn -0.596947 0.763226 -0.247264
vn -0.508937 0.834357 0.211733
vn -0.508937 0.834357 0.211733
vn -0.508937 0.834357 0.211733
vn -0.508937 0.834357 0.211733
vn -0.364641 -0.178489 0.913881
vn -0.364641 -0.178489 0.913881
vn -0.364641 -0.178489 0.913881
vn -0.364641 -0.178489 0.913881
vn 0.213545 0.605325 0.766799
vn 0.213545 0.605325 0.766799
vn 0.213545 0.605325 0.766799
vn 0.213545 0.605325 0.766799
vn 0.508937 0.834357 0.211732
vn 0.508937 0.834357 0.211732
vn 0.508937 0.834357 0.211732
vn 0.508937 0.834357 0.211732
vn 0.596947 0.763227 -0.247264
vn 0.596947 0.763227 -0.247264
vn 0.596947 0.763227 -0.247264
vn 0.596947 0.763227 -0.247264
vn 0.382307 -0.044361 -0.922970
vn 0.382221 -0.049179 -0.922762
vn -0.382220 -0.049180 -0.922762
vn -0.382307 -0.044361 -0.922970
vn -0.922428 -0.056045 -0.382082
vn -0.922975 -0.044250 -0.382308
vn -0.897014 0.040573 0.440135
vn -0.895635 0.062273 0.440409
vn -0.165746 0.000131 0.986169
vn -0.174036 0.019966 0.984537
vn 0.182565 0.132110 0.974278
vn 0.174035 0.019966 0.984537
vn 0.895635 0.062273 0.440409
vn 0.897014 0.040574 0.440135
vn 0.922975 -0.044250 -0.382309
vn 0.922427 -0.056045 -0.382082
vn -0.182564 0.132109 0.974278
vn -0.186562 0.211849 0.959330
vn -0.184567 0.100282 0.977690
vn -0.213545 0.605324 0.766800
vn -0.213545 0.605324 0.766800
vn -0.213545 0.605324 0.766800
vn -0.213545 0.605324 0.766800
vn 0.165745 0.000131 0.986169
vn 0.157451 0.243839 0.956949
vn 0.376847 0.193836 0.905767
vn 0.384941 -0.165598 0.907964
vn 0.384941 -0.165598 0.907964
vn 0.384941 -0.165598 0.907964
vn 0.384941 -0.165598 0.907964
vn 0.859062 0.367959 -0.355835
vn 0.859062 0.367959 -0.355835
vn 0.893406 0.135308 0.428390
vn 0.893406 0.135308 0.428390
vn 0.532802 0.199649 0.822352
vn 0.532802 0.199649 0.822352
vn 0.131419 -0.323655 0.937004
vn 0.131419 -0.323655 0.937004
vn 0.131419 -0.323655 0.937004
vn 0.131419 -0.323655 0.937004
vn -0.131419 -0.323655 0.937004
vn -0.131419 -0.323655 0.937004
vn -0.131419 -0.323655 0.937004
vn -0.131419 -0.323655 0.937004
vn -0.532802 0.199649 0.822352
vn -0.532802 0.199649 0.822352
vn -0.893405 0.135308 0.428391
vn -0.893406 0.135308 0.428391
vn -0.859062 0.367959 -0.355835
vn -0.859062 0.367959 -0.355835
vn -0.357911 0.353947 -0.864072
vn -0.357911 0.353947 -0.864072
vn 0.357911 0.353947 -0.864073
vn 0.357911 0.353947 -0.864073
vn 0.220460 -0.817386 -0.532238
vn 0.220460 -0.817386 -0.532238
vn -0.220460 -0.817388 -0.532235
vn -0.220460 -0.817388 -0.532235
vn -0.516371 -0.829224 -0.213888
vn -0.516371 -0.829224 -0.213888
vn -0.495154 -0.844249 0.205100
vn -0.495154 -0.844249 0.205100
vn -0.123581 -0.855747 0.502419
vn -0.106651 -0.856313 0.505325
vn -0.038356 -0.856038 0.515488
vn 0.038356 -0.856038 0.515489
vn 0.106650 -0.856312 0.505328
vn 0.123581 -0.855745 0.502422
vn 0.495154 -0.844249 0.205101
vn 0.495154 -0.844249 0.205101
vn 0.516371 -0.829224 -0.213888
vn 0.516371 -0.829224 -0.213888
vn 0.450535 -0.550745 0.702637
vn 0.450535 -0.550745 0.702637
vn 0.450535 -0.550745 0.702637
vn 0.450535 -0.550745 0.702637
vn 0.566684 0.251813 0.784512
vn 0.566684 0.251813 0.784512
vn 0.566684 0.251813 0.784512
vn 0.566684 0.251813 0.784512
vn 0.137794 0.798716 0.585718
vn 0.137794 0.798716 0.585718
vn 0.137794 0.798716 0.585718
vn 0.137794 0.798716 0.585718
vn -0.566685 0.251814 0.784512
vn -0.566685 0.251814 0.784512
vn -0.566685 0.251814 0.784512
vn -0.566685 0.251814 0.784512
vn -0.450535 -0.550744 0.702637
vn -0.450535 -0.550744 0.702637
vn -0.450535 -0.550744 0.702637
vn -0.450535 -0.550744 0.702637
vn -0.137795 0.798717 0.585717
vn -0.137795 0.798716 0.585717
vn -0.137795 0.798717 0.585717
vn -0.137795 0.798717 0.585717
vn 0.596661 -0.783559 0.173296
vn 0.596660 -0.783559 0.173296
vn 0.596661 -0.783559 0.173296
vn 0.596661 -0.783559 0.173296
vn 0.941964 0.280691 0.184163
vn 0.941964 0.280691 0.184163
vn 0.941964 0.280691 0.184163
vn 0.941964 0.280691 0.184163
vn 0.355172 0.921685 0.156045
vn 0.355172 0.921685 0.156045
vn 0.355172 0.921685 0.156045
vn 0.355172 0.921685 0.156045
vn -0.941964 0.280691 0.184163
vn -0.941964 0.280691 0.184163
vn -0.941964 0.280691 0.184163
vn -0.941964 0.280691 0.184163
vn -0.596660 -0.783559 0.173298
vn -0.596660 -0.783559 0.173298
vn -0.596660 -0.783559 0.173298
vn -0.596660 -0.783559 0.173298
vn -0.355172 0.921685 0.156045
vn -0.355172 0.921685 0.156045
vn -0.355172 0.921685 0.156045
vn -0.355172 0.921685 0.156045
vn -0.357608 0.314602 0.879285
vn -0.357608 0.314602 0.879285
vn -0.357608 0.314602 0.879285
vn -0.357608 0.314602 0.879285
vn -0.198148 0.108158 0.974187
vn -0.198148 0.108158 0.974187
vn -0.198148 0.108158 0.974187
vn -0.198148 0.108158 0.974187
vn 0.678077 0.473794 -0.561900
vn 0.678077 0.473794 -0.561900
vn 0.678077 0.473794 -0.561900
vn 0.678077 0.473794 -0.561900
vn -0.353910 0.063419 -0.933127
vn -0.353910 0.063419 -0.933127
vn -0.353910 0.063419 -0.933127
vn -0.353910 0.063419 -0.933127
vn 0.203145 0.107730 0.973204
vn 0.203145 0.107730 0.973204
vn 0.203145 0.107730 0.973204
vn 0.203145 0.107730 0.973204
vn 0.367921 0.326697 0.870577
vn 0.367921 0.326697 0.870576
vn 0.367921 0.326697 0.870577
vn 0.367921 0.326697 0.870576
vn 0.363442 0.076028 -0.928510
vn 0.363442 0.076028 -0.928510
vn 0.363442 0.076028 -0.928510
vn 0.363442 0.076028 -0.928510
vn -0.702276 0.463296 -0.540523
vn -0.702276 0.463296 -0.540523
vn -0.702276 0.463296 -0.540523
vn -0.702276 0.463296 -0.540523
s off
g canopicjar_anubis CANOPIC_JARS
usemtl initialShadingGroup
f 1/130/1 2/131/2 10/132/3 9/133/4
f 2/131/5 3/134/6 11/135/7 10/132/8
f 3/1/9 4/2/10 12/3/11 11/4/12
f 4/2/13 5/5/14 13/6/15 12/3/16
f 13/139/17 5/140/18 6/141/19 14/142/20
f 14/142/21 6/141/22 7/143/23 15/144/24
f 7/10/25 8/11/26 16/12/27 15/13/28
f 8/11/29 1/14/30 9/15/31 16/12/32
s 1
f 2/55/33 1/56/34 17/57/35
f 3/59/36 2/55/33 17/57/35
f 4/61/37 3/59/36 17/57/35
f 5/63/38 4/61/37 17/57/35
f 6/62/39 5/63/38 17/57/35
f 7/60/40 6/62/39 17/57/35
f 8/58/41 7/60/40 17/57/35
f 1/56/34 8/58/41 17/57/35
s 2
f 34/64/42 35/65/43 36/66/44
f 35/65/43 37/69/45 36/66/44
f 37/69/45 38/75/46 36/66/44
f 38/75/46 39/80/47 36/66/44
f 39/80/47 54/84/48 40/81/49 36/66/44
f 40/81/49 58/82/50 41/76/51 36/66/44
f 41/76/51 42/70/52 36/66/44
f 42/70/52 34/64/42 36/66/44
s off
f 9/133/53 10/132/54 19/136/55 18/137/56
f 10/132/57 11/135/58 20/138/59 19/136/60
f 11/4/61 12/3/62 21/7/63 20/8/64
f 12/3/65 13/6/66 22/9/67 21/7/68
f 51/145/69 22/146/70 13/139/71 14/142/72 23/147/73
f 55/148/74 23/147/75 14/142/76 15/144/77 24/149/78
f 15/13/79 16/12/80 25/16/81 24/17/82
f 16/12/83 9/15/84 18/18/85 25/16/86
s 3
f 43/150/87 44/151/88 68/152/89 59/153/90
s 4
f 44/151/91 45/156/92 67/157/93 68/152/94
s 5
f 45/19/95 46/20/96 66/21/97 67/22/98
s 6
f 46/20/99 47/25/100 65/26/101 66/21/102
s 7
f 47/159/103 52/160/104 64/161/105 65/162/106
s 8
f 48/166/107 56/168/108 62/169/109 63/165/110
s 9
f 49/45/111 50/37/112 60/40/113 61/46/114
s 10
f 50/37/115 43/38/116 59/39/117 60/40/118
s off
f 26/67/119 27/68/120 35/65/121 34/64/122
f 27/68/123 28/73/124 37/69/125 35/65/126
f 28/73/127 29/78/128 38/75/129 37/69/130
f 29/78/131 30/83/132 39/80/133 38/75/134
f 91/174/135 92/175/136 93/176/137 94/177/138
f 31/85/139 57/86/140 58/82/141 40/81/142
f 32/79/143 33/74/144 42/70/145 41/76/146
f 33/74/147 26/67/148 34/64/149 42/70/150
s 3
f 69/154/151 70/155/152 44/151/88 43/150/87
s 4
f 70/155/153 71/158/154 45/156/92 44/151/91
s 5
f 71/23/155 72/24/156 46/20/96 45/19/95
s 6
f 72/24/157 73/29/158 47/25/100 46/20/99
s 7
f 73/163/159 74/164/160 52/160/104 47/159/103
s 8
f 75/167/161 76/170/162 56/168/108 48/166/107
s 9
f 77/47/163 78/41/164 50/37/112 49/45/111
s 10
f 78/41/165 69/42/166 43/38/116 50/37/115
s 7
f 52/160/104 74/164/160 75/167/167 48/166/168
f 63/165/169 64/161/105 52/160/104 48/166/168
s off
f 54/84/170 53/91/171 31/85/172 40/81/173
s 8
f 56/168/108 76/170/162 77/173/174 49/172/175
f 61/171/176 62/169/109 56/168/108 49/172/175
s off
f 96/181/177 95/182/178 97/183/179 98/184/180
s 10
f 60/40/118 59/39/117 26/43/181 33/44/182
s 9
f 61/46/114 60/40/113 33/44/183 32/48/184
s 8
f 57/49/185 62/50/109 61/46/176 32/48/186
s off
f 86/121/187 85/120/188 87/124/189 88/125/190
f 90/129/191 89/127/192 86/121/193 88/125/194
s 7
f 65/26/106 64/31/105 53/32/195 30/30/196
s 6
f 66/21/102 65/26/101 30/30/197 29/27/198
s 5
f 67/22/98 66/21/97 29/27/199 28/28/200
s 4
f 68/72/94 67/77/93 28/73/201 27/68/202
s 3
f 59/71/90 68/72/89 27/68/203 26/67/204
f 18/98/205 19/99/206 70/100/152 69/101/151
s 4
f 19/99/207 20/102/208 71/103/154 70/100/153
s 5
f 20/102/209 21/106/210 72/107/156 71/103/155
s 6
f 21/106/211 22/110/212 73/111/158 72/107/157
s 7
f 22/110/213 51/114/214 74/115/160 73/111/159
f 75/117/167 74/115/160 51/114/214 23/116/215
s 8
f 23/116/216 55/113/217 76/112/162 75/117/161
f 77/109/174 76/112/162 55/113/217 24/108/218
s 9
f 24/108/219 25/104/220 78/105/164 77/109/163
s 10
f 25/104/221 18/98/222 69/101/166 78/105/165
s off
f 63/122/223 62/123/224 79/119/225 80/118/226
f 62/50/227 57/49/228 81/51/229 79/52/230
f 57/86/231 31/85/232 82/92/233 81/93/234
f 53/32/235 64/31/236 83/33/237 84/34/238
f 64/128/239 63/122/240 80/118/241 83/126/242
f 31/85/243 53/91/244 84/94/245 82/92/246
f 80/118/247 79/119/248 85/120/249 86/121/250
f 79/52/251 81/51/252 87/53/253 85/54/254
f 81/93/255 82/92/256 88/95/257 87/96/258
f 84/34/259 83/33/260 89/35/261 90/36/262
f 83/126/263 80/118/264 86/121/265 89/127/266
f 82/92/267 84/94/268 90/97/269 88/95/270
f 30/178/271 53/179/272 92/175/273 91/174/274
f 53/179/275 54/180/276 93/176/277 92/175/278
f 54/84/279 39/80/280 94/89/281 93/90/282
f 39/188/283 30/189/284 91/190/285 94/191/286
f 58/185/287 57/186/288 95/182/289 96/181/290
f 57/186/291 32/187/292 97/183/293 95/182/294
f 32/192/295 41/193/296 98/194/297 97/195/298
f 41/76/299 58/82/300 96/87/301 98/88/302
