{
  "accessors": [
    {
      "bufferView": 0,
      "componentType": 5125,
      "count": 3252,
      "type": "SCALAR"
    },
    {
      "bufferView": 1,
      "componentType": 5126,
      "count": 1813,
      "max": [
        0.290598958730698,
        1.0,
        0.871796846389771
      ],
      "min": [
        -0.290598958730698,
        -1.0,
        -0.871796846389771
      ],
      "type": "VEC3"
    },
    {
      "bufferView": 2,
      "componentType": 5126,
      "count": 1813,
      "type": "VEC3"
    },
    {
      "bufferView": 3,
      "componentType": 5126,
      "count": 1813,
      "type": "VEC2"
    }
  ],
  "asset": {
    "generator": "Substance Painter 2019.3.3",
    "version": "2.0"
  },
  "bufferViews": [
    {
      "buffer": 0,
      "byteLength": 13008,
      "target": 34963
    },
    {
      "buffer": 0,
      "byteLength": 21756,
      "byteOffset": 13008,
      "target": 34962
    },
    {
      "buffer": 0,
      "byteLength": 21756,
      "byteOffset": 34764,
      "target": 34962
    },
    {
      "buffer": 0,
      "byteLength": 14504,
      "byteOffset": 56520,
      "target": 34962
    }
  ],
  "buffers": [
    {
      "byteLength": 71024,
      "uri": "shelf_v8.bin"
    }
  ],
  "images": [
    {
      "uri": "phong29SG_baseColor.png"
    },
    {
      "uri": "phong29SG_occlusionRoughnessMetallic.png"
    },
    {
      "uri": "phong29SG_normal.png"
    }
  ],
  "materials": [
    {
      "alphaMode": "OPAQUE",
      "name": "phong29SG",
      "normalTexture": {
        "index": 2
      },
      "occlusionTexture": {
        "index": 1
      },
      "pbrMetallicRoughness": {
        "baseColorTexture": {
          "index": 0
        },
        "metallicRoughnessTexture": {
          "index": 1
        }
      }
    }
  ],
  "meshes": [
    {
      "name": "shelf_v8_tester_pCube265",
      "primitives": [
        {
          "attributes": {
            "NORMAL": 2,
            "POSITION": 1,
            "TEXCOORD_0": 3
          },
          "indices": 0,
          "material": 0,
          "mode": 4
        }
      ]
    }
  ],
  "nodes": [
    {
      "children": [
        1
      ],
      "name": "shelf_v8.obj",
      "scale": [
        6.88233709335327,
        6.88233709335327,
        6.88233709335327
      ],
      "translation": [
        0.0,
        6.88233709335327,
        0.0
      ]
    },
    {
      "children": [
        2
      ],
      "name": "g shelf_v8_tester_pCube265"
    },
    {
      "mesh": 0,
      "name": "shelf_v8_tester_pCube265"
    }
  ],
  "samplers": [
    {
      "magFilter": 9729,
      "minFilter": 9985,
      "wrapS": 10497,
      "wrapT": 10497
    }
  ],
  "scene": 0,
  "scenes": [
    {
      "name": "Scene",
      "nodes": [
        0
      ]
    }
  ],
  "textures": [
    {
      "sampler": 0,
      "source": 0
    },
    {
      "sampler": 0,
      "source": 1
    },
    {
      "sampler": 0,
      "source": 2
    }
  ]
}