{
  "accessors": [
    {
      "bufferView": 0,
      "componentType": 5125,
      "count": 1644,
      "type": "SCALAR"
    },
    {
      "bufferView": 1,
      "componentType": 5126,
      "count": 877,
      "max": [
        0.283530980348587,
        0.999999940395355,
        0.283921033143997
      ],
      "min": [
        -0.283530980348587,
        -0.999999940395355,
        -0.28392106294632
      ],
      "type": "VEC3"
    },
    {
      "bufferView": 2,
      "componentType": 5126,
      "count": 877,
      "type": "VEC3"
    },
    {
      "bufferView": 3,
      "componentType": 5126,
      "count": 877,
      "type": "VEC2"
    }
  ],
  "asset": {
    "generator": "Substance Painter 2019.3.3",
    "version": "2.0"
  },
  "bufferViews": [
    {
      "buffer": 0,
      "byteLength": 6576,
      "target": 34963
    },
    {
      "buffer": 0,
      "byteLength": 10524,
      "byteOffset": 6576,
      "target": 34962
    },
    {
      "buffer": 0,
      "byteLength": 10524,
      "byteOffset": 17100,
      "target": 34962
    },
    {
      "buffer": 0,
      "byteLength": 7016,
      "byteOffset": 27624,
      "target": 34962
    }
  ],
  "buffers": [
    {
      "byteLength": 34640,
      "uri": "shelf_v8_corner.bin"
    }
  ],
  "images": [
    {
      "uri": "phong30SG_baseColor.png"
    },
    {
      "uri": "phong30SG_occlusionRoughnessMetallic.png"
    },
    {
      "uri": "phong30SG_normal.png"
    }
  ],
  "materials": [
    {
      "alphaMode": "OPAQUE",
      "name": "phong30SG",
      "normalTexture": {
        "index": 2
      },
      "occlusionTexture": {
        "index": 1
      },
      "pbrMetallicRoughness": {
        "baseColorTexture": {
          "index": 0
        },
        "metallicRoughnessTexture": {
          "index": 1
        }
      }
    }
  ],
  "meshes": [
    {
      "name": "shelf_v8_corner_tester",
      "primitives": [
        {
          "attributes": {
            "NORMAL": 2,
            "POSITION": 1,
            "TEXCOORD_0": 3
          },
          "indices": 0,
          "material": 0,
          "mode": 4
        }
      ]
    }
  ],
  "nodes": [
    {
      "children": [
        1
      ],
      "name": "shelf_v8_corner.obj",
      "scale": [
        7.0539026260376,
        7.0539026260376,
        7.0539026260376
      ],
      "translation": [
        0.0,
        7.0539026260376,
        0.00292861461639404
      ]
    },
    {
      "children": [
        2
      ],
      "name": "g shelf_v8_corner_tester"
    },
    {
      "mesh": 0,
      "name": "shelf_v8_corner_tester"
    }
  ],
  "samplers": [
    {
      "magFilter": 9729,
      "minFilter": 9985,
      "wrapS": 10497,
      "wrapT": 10497
    }
  ],
  "scene": 0,
  "scenes": [
    {
      "name": "Scene",
      "nodes": [
        0
      ]
    }
  ],
  "textures": [
    {
      "sampler": 0,
      "source": 0
    },
    {
      "sampler": 0,
      "source": 1
    },
    {
      "sampler": 0,
      "source": 2
    }
  ]
}