{
    "asset": {
        "version": "2.0",
        "generator": "Open Asset Import Library (assimp v3.1.206520482)"
    },
    "accessors": [
        {
            "bufferView": 0,
            "byteOffset": 0,
            "componentType": 5126,
            "count": 328,
            "type": "VEC3",
            "max": [
                0.20112672448158265,
                -0.02006012201309204,
                0.22456149756908418
            ],
            "min": [
                -0.2011266052722931,
                -0.9983568787574768,
                -0.20112666487693788
            ]
        },
        {
            "bufferView": 1,
            "byteOffset": 0,
            "componentType": 5126,
            "count": 328,
            "type": "VEC3",
            "max": [
                0.9419642090797424,
                1.0,
                0.985245943069458
            ],
            "min": [
                -0.9419642090797424,
                -1.0,
                -0.9331271648406982
            ]
        },
        {
            "bufferView": 2,
            "byteOffset": 0,
            "componentType": 5126,
            "count": 328,
            "type": "VEC2",
            "max": [
                1.0116480588912964,
                0.9785320162773132
            ],
            "min": [
                0.03915800154209137,
                0.021462976932525636
            ]
        },
        {
            "bufferView": 3,
            "byteOffset": 0,
            "componentType": 5123,
            "count": 576,
            "type": "SCALAR",
            "max": [
                327.0
            ],
            "min": [
                0.0
            ]
        }
    ],
    "buffers": [
        {
            "byteLength": 11648,
            "uri": "assets/models/canopicjar_anubis_GLTF.bin"
        }
    ],
    "bufferViews": [
        {
            "buffer": 0,
            "byteOffset": 0,
            "byteLength": 3936,
            "target": 34962
        },
        {
            "buffer": 0,
            "byteOffset": 3936,
            "byteLength": 3936,
            "target": 34962
        },
        {
            "buffer": 0,
            "byteOffset": 7872,
            "byteLength": 2624,
            "target": 34962
        },
        {
            "buffer": 0,
            "byteOffset": 10496,
            "byteLength": 1152,
            "target": 34963
        }
    ],
    "materials": [
        {
            "name": "initialShadingGroup",
            "pbrMetallicRoughness": {
                "baseColorFactor": [
                    0.5,
                    0.5,
                    0.5,
                    1.0
                ],
                "metallicFactor": 0.0
            }
        }
    ],
    "meshes": [
        {
            "name": "canopicjar_anubis CANOPIC_JARS",
            "primitives": [
                {
                    "mode": 4,
                    "material": 0,
                    "indices": 3,
                    "attributes": {
                        "POSITION": 0,
                        "NORMAL": 1,
                        "TEXCOORD_0": 2
                    }
                }
            ]
        }
    ],
    "nodes": [
        {
            "matrix": [
                7.22970724105835,
                0.0,
                0.0,
                0.0,
                0.0,
                7.22970724105835,
                0.0,
                0.0,
                0.0,
                0.0,
                7.22970724105835,
                0.0,
                -4.76837158203125e-7,
                7.22970724105835,
                0.0,
                1.0
            ],
            "children": [
                1,
                2
            ]
        },
        {
            "name": "g default"
        },
        {
            "name": "g canopicjar_anubis CANOPIC_JARS",
            "mesh": 0
        }
    ],
    "scenes": [
        {
            "nodes": [
                0
            ]
        }
    ],
    "scene": 0
}