{
  "accessors": [
    {
      "bufferView": 0,
      "componentType": 5125,
      "count": 492,
      "type": "SCALAR"
    },
    {
      "bufferView": 1,
      "componentType": 5126,
      "count": 270,
      "max": [
        0.447966784238815,
        0.99999988079071,
        0.447966784238815
      ],
      "min": [
        -0.447966784238815,
        -1.0,
        -0.447966784238815
      ],
      "type": "VEC3"
    },
    {
      "bufferView": 2,
      "componentType": 5126,
      "count": 270,
      "type": "VEC3"
    },
    {
      "bufferView": 3,
      "componentType": 5126,
      "count": 270,
      "type": "VEC2"
    }
  ],
  "asset": {
    "generator": "Substance Painter 2019.3.2",
    "version": "2.0"
  },
  "bufferViews": [
    {
      "buffer": 0,
      "byteLength": 1968,
      "target": 34963
    },
    {
      "buffer": 0,
      "byteLength": 3240,
      "byteOffset": 1968,
      "target": 34962
    },
    {
      "buffer": 0,
      "byteLength": 3240,
      "byteOffset": 5208,
      "target": 34962
    },
    {
      "buffer": 0,
      "byteLength": 2160,
      "byteOffset": 8448,
      "target": 34962
    }
  ],
  "buffers": [
    {
      "byteLength": 10608,
      "uri": "canopicjar_horus_texture_mar12.bin"
    }
  ],
  "images": [
    {
      "uri": "initialShadingGroup_baseColor.png"
    },
    {
      "uri": "initialShadingGroup_occlusionRoughnessMetallic.png"
    },
    {
      "uri": "initialShadingGroup_normal.png"
    }
  ],
  "materials": [
    {
      "alphaMode": "OPAQUE",
      "name": "initialShadingGroup",
      "normalTexture": {
        "index": 2
      },
      "occlusionTexture": {
        "index": 1
      },
      "pbrMetallicRoughness": {
        "baseColorTexture": {
          "index": 0
        },
        "metallicRoughnessTexture": {
          "index": 1
        }
      }
    }
  ],
  "meshes": [
    {
      "name": "canopicjar_horus CANOPIC_JARS",
      "primitives": [
        {
          "attributes": {
            "NORMAL": 2,
            "POSITION": 1,
            "TEXCOORD_0": 3
          },
          "indices": 0,
          "material": 0,
          "mode": 4
        }
      ]
    }
  ],
  "nodes": [
    {
      "children": [
        1
      ],
      "name": "canopicJar_Horus_Mar12.obj",
      "scale": [
        3.2459704875946,
        3.2459704875946,
        3.2459704875946
      ],
      "translation": [
        0.0,
        3.25784945487976,
        0.0
      ]
    },
    {
      "children": [
        2
      ],
      "name": "g canopicjar_horus CANOPIC_JARS"
    },
    {
      "mesh": 0,
      "name": "canopicjar_horus CANOPIC_JARS"
    }
  ],
  "samplers": [
    {
      "magFilter": 9729,
      "minFilter": 9985,
      "wrapS": 10497,
      "wrapT": 10497
    }
  ],
  "scene": 0,
  "scenes": [
    {
      "name": "Scene",
      "nodes": [
        0
      ]
    }
  ],
  "textures": [
    {
      "sampler": 0,
      "source": 0
    },
    {
      "sampler": 0,
      "source": 1
    },
    {
      "sampler": 0,
      "source": 2
    }
  ]
}