# This file uses centimeters as units for non-parametric coordinates.

mtllib canopicJar_Horus_Mar12.mtl
g default
v 0.707107 0.011879 -0.707107
v 0.000000 0.011879 -1.000000
v -0.707107 0.011879 -0.707107
v -1.000000 0.011879 0.000000
v -0.707107 0.011879 0.707107
v 0.000000 0.011879 1.000000
v 0.707107 0.011879 0.707107
v 1.000000 0.011879 0.000000
v 1.028195 3.967391 -1.028195
v -0.000000 3.967391 -1.454087
v -1.028195 3.967391 -1.028195
v -1.454087 3.967391 -0.000000
v -1.028195 3.967391 1.028195
v -0.000000 3.967391 1.454087
v 1.028195 3.967391 1.028195
v 1.454087 3.967391 -0.000000
v 0.000000 0.011879 0.000000
v 0.770936 4.528656 -0.770936
v -0.000000 4.528656 -1.090269
v -0.770936 4.528656 -0.770936
v -1.090269 4.528656 0.000000
v -0.770936 4.528656 0.770936
v -0.000000 4.528656 0.932616
v 0.770937 4.528656 0.770937
v 1.090269 4.528656 0.000000
v 0.636131 6.255710 -0.649914
v 0.000000 6.255710 -0.913408
v -0.636131 6.255710 -0.649914
v -0.899624 6.255710 -0.013784
v -0.636131 6.255710 0.622347
v 0.000000 6.255710 0.755755
v 0.636131 6.255710 0.622347
v 0.899625 6.255710 -0.013784
v 0.415861 6.503820 -0.415861
v 0.000000 6.503820 -0.588117
v 0.000000 6.503820 0.000000
v -0.415861 6.503820 -0.415861
v -0.588117 6.503820 0.000000
v -0.415861 6.503820 0.415861
v 0.000000 6.503820 0.588117
v 0.415862 6.503820 0.415862
v 0.588117 6.503820 0.000000
v 0.820999 5.228919 -0.815880
v -0.000000 5.228919 -1.155949
v -0.820999 5.228919 -0.815880
v -1.161067 5.228919 0.005119
v -0.820999 5.228919 0.576400
v -0.000000 5.228919 0.904041
v 0.820999 5.228919 0.576400
v 1.161067 5.228919 0.005119
v -0.162812 4.528656 0.908969
v -0.282790 5.228919 0.812566
v -0.452478 6.255710 0.657966
v -0.207931 6.503820 0.501989
v 0.162812 4.528656 0.908969
v 0.282790 5.228919 0.812566
v 0.452479 6.255710 0.657967
v 0.207931 6.503820 0.501989
v 0.770936 5.823950 -0.770936
v 1.090269 5.823950 -0.000000
v 0.770937 5.823950 0.521219
v 0.676706 5.823950 0.739489
v -0.000000 5.729558 0.955559
v -0.676706 5.823950 0.739489
v -0.770936 5.823950 0.521219
v -1.090269 5.823950 0.000000
v -0.770936 5.823950 -0.770936
v -0.000000 5.823950 -1.090269
v 0.879039 4.621005 -0.867985
v -0.000000 4.621005 -1.232095
v -0.879039 4.621005 -0.867986
v -1.243148 4.621005 0.011053
v -0.879039 4.621005 0.890092
v -0.185839 4.621005 1.072147
v -0.000000 4.621005 1.074442
v 0.185839 4.621005 1.072147
v 0.879039 4.621005 0.890092
v 1.243149 4.621005 0.011053
v 0.134071 5.823950 0.899653
v 0.000000 5.823950 1.157866
v 0.083285 6.103134 0.896541
v 0.000000 6.103134 1.007443
v -0.134071 5.823950 0.899653
v -0.083285 6.103134 0.896541
vt 0.427848 0.166879
vt 0.470953 0.166879
vt 0.470953 0.288797
vt 0.408275 0.288797
vt 0.514057 0.166879
vt 0.533630 0.288797
vt 0.470953 0.306096
vt 0.423957 0.306096
vt 0.517948 0.306096
vt 0.428052 0.168961
vt 0.471157 0.168961
vt 0.471157 0.290879
vt 0.408479 0.290879
vt 0.514261 0.168961
vt 0.533835 0.290879
vt 0.471157 0.308178
vt 0.424161 0.308178
vt 0.518152 0.308178
vt 0.264100 0.424043
vt 0.358066 0.407632
vt 0.358403 0.439966
vt 0.272655 0.456712
vt 0.255762 0.390833
vt 0.357855 0.373711
vt 0.428644 0.418639
vt 0.420641 0.451889
vt 0.358399 0.470306
vt 0.285200 0.484627
vt 0.460719 0.383626
vt 0.533368 0.425293
vt 0.484289 0.446289
vt 0.432974 0.478717
vt 0.482163 0.480679
vt 0.874197 0.413365
vt 0.964743 0.440945
vt 0.952348 0.472079
vt 0.869937 0.445167
vt 0.878527 0.379984
vt 0.976990 0.409252
vt 0.936602 0.498046
vt 0.866255 0.475047
vt 0.770556 0.414772
vt 0.780571 0.445973
vt 0.754646 0.370721
vt 0.770626 0.473382
vt 0.755994 0.451237
vt 0.709435 0.425974
vt 0.754927 0.485411
vt 0.618481 0.512300
vt 0.669888 0.514357
vt 0.669384 0.542485
vt 0.647304 0.541602
vt 0.562355 0.542447
vt 0.561972 0.514317
vt 0.613388 0.512484
vt 0.584438 0.541660
vt 0.615654 0.056172
vt 0.636561 0.064832
vt 0.615654 0.085738
vt 0.645220 0.085738
vt 0.594748 0.064832
vt 0.636561 0.106645
vt 0.586088 0.085738
vt 0.615654 0.115305
vt 0.594748 0.106645
vt 0.669611 0.719750
vt 0.621067 0.739857
vt 0.621067 0.671206
vt 0.695323 0.747071
vt 0.134194 0.473040
vt 0.572523 0.719750
vt 0.689719 0.671206
vt 0.055436 0.453740
vt 0.135522 0.446419
vt 0.201323 0.486825
vt 0.726081 0.672815
vt 0.552415 0.671206
vt 0.669611 0.622662
vt 0.214481 0.461674
vt 0.516052 0.672815
vt 0.695323 0.598558
vt 0.572523 0.622662
vt 0.621067 0.602554
vt 0.645339 0.612608
vt 0.546810 0.598558
vt 0.673885 0.594400
vt 0.596795 0.612608
vt 0.621067 0.582985
vt 0.568248 0.594400
vt 0.621067 0.553605
vt 0.630789 0.566551
vt 0.611345 0.566551
vt 0.590685 0.056773
vt 0.579170 0.084574
vt 0.574055 0.084574
vt 0.587185 0.052875
vt 0.590685 0.112375
vt 0.587185 0.116274
vt 0.618486 0.045258
vt 0.618885 0.039745
vt 0.618486 0.123891
vt 0.618885 0.129404
vt 0.646287 0.056773
vt 0.650584 0.052875
vt 0.646287 0.112375
vt 0.650584 0.116274
vt 0.657149 0.077873
vt 0.651264 0.078703
vt 0.651264 0.090446
vt 0.657149 0.091276
vt 0.652117 0.084574
vt 0.657232 0.084574
vt 0.427827 0.165632
vt 0.470932 0.165637
vt 0.470920 0.287555
vt 0.408242 0.287549
vt 0.514036 0.165641
vt 0.533598 0.287561
vt 0.470918 0.304854
vt 0.423923 0.304850
vt 0.517914 0.304859
vt 0.558613 0.288376
vt 0.578187 0.166459
vt 0.621291 0.166459
vt 0.621291 0.288376
vt 0.664396 0.166459
vt 0.683969 0.288376
vt 0.611366 0.305676
vt 0.574296 0.305676
vt 0.621291 0.305676
vt 0.631216 0.305676
vt 0.668287 0.305676
vt 0.050198 0.423714
vt 0.137013 0.416527
vt 0.044579 0.393130
vt 0.138560 0.385519
vt 0.222682 0.432319
vt 0.231317 0.402445
vt 0.616614 0.410522
vt 0.667526 0.410530
vt 0.715330 0.473868
vt 0.616622 0.355184
vt 0.650080 0.355189
vt 0.640742 0.473856
vt 0.564167 0.393740
vt 0.698061 0.513168
vt 0.631595 0.499268
vt 0.535136 0.513142
vt 0.601606 0.499263
vt 0.621067 0.777829
vt 0.546810 0.747071
vt 0.066026 0.480076
vt 0.681912 0.391964
vt 0.583165 0.355178
vt 0.565701 0.410514
vt 0.776019 0.377249
vt 0.803353 0.415630
vt 0.493170 0.365623
vt 0.473087 0.408337
vt 0.460119 0.438708
vt 0.467535 0.467140
vt 0.807195 0.449347
vt 0.791789 0.474269
vt 0.517880 0.473836
vt 0.592467 0.473848
vt 0.715330 0.464704
vt 0.616606 0.456096
vt 0.517880 0.464672
vt 0.764376 0.565273
vt 0.838543 0.565273
vt 0.822408 0.573092
vt 0.849776 0.564436
vt 0.923943 0.564436
vt 0.865911 0.572254
vt 0.775970 0.583884
vt 0.833634 0.583884
vt 0.838246 0.658051
vt 0.848400 0.583046
vt 0.906064 0.583046
vt 0.843788 0.657214
vn 0.380549 -0.105469 -0.918727
vn 0.380549 -0.105469 -0.918727
vn 0.380549 -0.105469 -0.918727
vn 0.380549 -0.105469 -0.918727
vn -0.380549 -0.105469 -0.918727
vn -0.380549 -0.105469 -0.918727
vn -0.380549 -0.105469 -0.918727
vn -0.380549 -0.105469 -0.918727
vn -0.918727 -0.105469 -0.380549
vn -0.918727 -0.105469 -0.380549
vn -0.918727 -0.105469 -0.380549
vn -0.918727 -0.105469 -0.380549
vn -0.918727 -0.105469 0.380549
vn -0.918727 -0.105469 0.380549
vn -0.918727 -0.105469 0.380549
vn -0.918727 -0.105469 0.380549
vn -0.380549 -0.105469 0.918727
vn -0.380549 -0.105469 0.918727
vn -0.380549 -0.105469 0.918727
vn -0.380549 -0.105469 0.918727
vn 0.380549 -0.105469 0.918727
vn 0.380549 -0.105469 0.918727
vn 0.380549 -0.105469 0.918727
vn 0.380549 -0.105469 0.918727
vn 0.918727 -0.105469 0.380549
vn 0.918727 -0.105469 0.380549
vn 0.918727 -0.105469 0.380549
vn 0.918727 -0.105469 0.380549
vn 0.918727 -0.105469 -0.380549
vn 0.918727 -0.105469 -0.380549
vn 0.918727 -0.105469 -0.380549
vn 0.918727 -0.105469 -0.380549
vn 0.000000 -1.000000 0.000000
vn 0.000000 -1.000000 0.000000
vn 0.000000 -1.000000 0.000000
vn 0.000000 -1.000000 0.000000
vn 0.000000 -1.000000 0.000000
vn 0.000000 -1.000000 0.000000
vn 0.000000 -1.000000 0.000000
vn 0.000000 -1.000000 0.000000
vn 0.000000 -1.000000 0.000000
vn 0.000000 1.000000 -0.000002
vn 0.000000 1.000000 0.000000
vn 0.000000 1.000000 -0.000000
vn 0.000000 1.000000 0.000001
vn 0.000000 1.000000 -0.000001
vn 0.000000 1.000000 -0.000002
vn 0.000000 1.000000 0.000000
vn 0.000000 1.000000 0.000000
vn 0.000000 1.000000 0.000000
vn 0.000000 1.000000 0.000002
vn 0.000000 1.000000 0.000000
vn 0.328312 0.513783 -0.792615
vn 0.328312 0.513783 -0.792615
vn 0.328312 0.513783 -0.792615
vn 0.328312 0.513783 -0.792615
vn -0.328312 0.513783 -0.792615
vn -0.328312 0.513783 -0.792615
vn -0.328312 0.513783 -0.792615
vn -0.328312 0.513783 -0.792615
vn -0.792615 0.513783 -0.328312
vn -0.792615 0.513783 -0.328312
vn -0.792615 0.513783 -0.328312
vn -0.792615 0.513783 -0.328312
vn -0.792615 0.513783 0.328312
vn -0.792615 0.513783 0.328312
vn -0.792615 0.513783 0.328312
vn -0.792615 0.513783 0.328312
vn -0.251585 0.585895 0.770346
vn -0.251585 0.585895 0.770346
vn -0.251585 0.585895 0.770346
vn -0.251585 0.585895 0.770346
vn -0.251585 0.585895 0.770346
vn 0.251584 0.585894 0.770346
vn 0.251584 0.585895 0.770346
vn 0.251584 0.585895 0.770346
vn 0.251584 0.585894 0.770346
vn 0.251584 0.585894 0.770346
vn 0.792615 0.513783 0.328312
vn 0.792615 0.513783 0.328312
vn 0.792615 0.513783 0.328312
vn 0.792615 0.513783 0.328312
vn 0.792615 0.513783 -0.328312
vn 0.792615 0.513783 -0.328312
vn 0.792615 0.513783 -0.328312
vn 0.792615 0.513783 -0.328312
vn 0.380415 0.108727 -0.918402
vn 0.380416 0.108697 -0.918405
vn 0.375108 0.197989 -0.905591
vn 0.375200 0.196801 -0.905812
vn -0.380416 0.108697 -0.918405
vn -0.380415 0.108727 -0.918402
vn -0.375200 0.196801 -0.905812
vn -0.375108 0.197989 -0.905591
vn -0.917902 0.113575 -0.380207
vn -0.917894 0.113650 -0.380204
vn -0.904338 0.204587 -0.374589
vn -0.903761 0.207555 -0.374350
vn -0.869130 0.171934 0.463737
vn -0.870120 0.175703 0.460457
vn -0.857680 0.192852 0.476649
vn -0.856951 0.178935 0.483339
vn -0.413551 0.235302 0.879550
vn -0.336784 0.177929 0.924618
vn -0.527264 -0.028752 0.849215
vn -0.604614 -0.003898 0.796509
vn 0.271379 0.058850 0.960672
vn 0.336784 0.177929 0.924618
vn 0.527264 -0.028752 0.849215
vn 0.312233 -0.093652 0.945378
vn 0.870119 0.175703 0.460457
vn 0.869130 0.171934 0.463737
vn 0.856952 0.178935 0.483339
vn 0.857680 0.192852 0.476648
vn 0.917894 0.113650 -0.380204
vn 0.917901 0.113575 -0.380207
vn 0.903761 0.207555 -0.374350
vn 0.904338 0.204587 -0.374589
vn 0.243634 0.771157 -0.588184
vn 0.243634 0.771157 -0.588184
vn 0.243634 0.771157 -0.588184
vn 0.243634 0.771157 -0.588184
vn -0.243634 0.771155 -0.588185
vn -0.243634 0.771155 -0.588185
vn -0.243634 0.771155 -0.588185
vn -0.243634 0.771155 -0.588185
vn -0.596951 0.763223 -0.247265
vn -0.596951 0.763223 -0.247265
vn -0.596951 0.763223 -0.247265
vn -0.596951 0.763223 -0.247265
vn -0.609636 0.751384 0.252520
vn -0.609636 0.751384 0.252520
vn -0.609636 0.751384 0.252520
vn -0.609636 0.751384 0.252520
vn -0.212509 0.698326 0.683507
vn -0.213338 0.661340 0.719108
vn -0.213594 0.631338 0.745513
vn -0.212509 0.698326 0.683507
vn 0.213546 0.605320 0.766802
vn 0.213338 0.661342 0.719106
vn 0.213595 0.631340 0.745512
vn 0.213546 0.605320 0.766802
vn 0.609636 0.751384 0.252520
vn 0.609636 0.751384 0.252520
vn 0.609636 0.751384 0.252520
vn 0.609636 0.751384 0.252520
vn 0.596951 0.763223 -0.247265
vn 0.596951 0.763223 -0.247265
vn 0.596951 0.763223 -0.247265
vn 0.596951 0.763223 -0.247265
vn 0.382307 -0.044361 -0.922970
vn 0.382221 -0.049179 -0.922762
vn -0.382220 -0.049179 -0.922762
vn -0.382307 -0.044361 -0.922970
vn -0.922428 -0.056044 -0.382082
vn -0.922975 -0.044250 -0.382308
vn -0.902769 -0.005711 0.430087
vn -0.902459 -0.043785 0.428545
vn -0.305715 0.218605 0.926688
vn -0.269417 0.136804 0.953257
vn 0.182564 0.132109 0.974278
vn 0.269416 0.136804 0.953257
vn 0.902459 -0.043785 0.428546
vn 0.902769 -0.005710 0.430087
vn 0.922975 -0.044250 -0.382309
vn 0.922427 -0.056045 -0.382082
vn -0.182564 0.132109 0.974278
vn -0.271379 0.058850 0.960672
vn -0.312234 -0.093652 0.945378
vn -0.213545 0.605319 0.766803
vn -0.213545 0.605319 0.766803
vn 0.305715 0.218605 0.926688
vn 0.413551 0.235302 0.879550
vn 0.604614 -0.003898 0.796509
vn 0.212509 0.698328 0.683504
vn 0.212509 0.698328 0.683504
vn 0.859062 0.367961 -0.355835
vn 0.859062 0.367961 -0.355835
vn 0.857542 0.279517 0.431847
vn 0.857542 0.279517 0.431847
vn 0.652223 0.254974 0.713858
vn 0.652223 0.254973 0.713858
vn 0.841944 0.212904 0.495784
vn 0.841944 0.212904 0.495784
vn 0.841944 0.212904 0.495784
vn 0.841944 0.212904 0.495784
vn -0.841944 0.212904 0.495784
vn -0.841944 0.212904 0.495784
vn -0.841944 0.212904 0.495784
vn -0.841944 0.212904 0.495784
vn -0.652223 0.254973 0.713859
vn -0.652223 0.254973 0.713859
vn -0.857542 0.279517 0.431847
vn -0.857542 0.279517 0.431847
vn -0.859062 0.367960 -0.355835
vn -0.859061 0.367961 -0.355835
vn -0.357911 0.353948 -0.864072
vn -0.357911 0.353948 -0.864072
vn 0.357910 0.353948 -0.864072
vn 0.357910 0.353948 -0.864072
vn 0.220460 -0.817386 -0.532238
vn 0.220460 -0.817386 -0.532238
vn -0.220460 -0.817388 -0.532235
vn -0.220460 -0.817388 -0.532235
vn -0.516371 -0.829224 -0.213888
vn -0.516371 -0.829224 -0.213888
vn -0.495154 -0.844249 0.205100
vn -0.495154 -0.844249 0.205100
vn -0.123581 -0.855747 0.502419
vn -0.106651 -0.856313 0.505325
vn -0.038356 -0.856038 0.515488
vn 0.038356 -0.856038 0.515489
vn 0.106650 -0.856312 0.505328
vn 0.123581 -0.855745 0.502422
vn 0.495154 -0.844249 0.205101
vn 0.495154 -0.844249 0.205101
vn 0.516371 -0.829224 -0.213888
vn 0.516371 -0.829224 -0.213888
vn 0.353899 0.244371 0.902795
vn 0.353898 0.244371 0.902795
vn 0.353898 0.244371 0.902795
vn 0.353898 0.244371 0.902795
vn 0.249326 0.726721 0.640089
vn 0.249326 0.726721 0.640089
vn 0.249326 0.726721 0.640089
vn 0.249326 0.726721 0.640089
vn -0.353898 0.244371 0.902795
vn -0.353898 0.244371 0.902795
vn -0.353898 0.244371 0.902795
vn -0.353898 0.244371 0.902795
vn -0.249327 0.726723 0.640086
vn -0.249327 0.726723 0.640085
vn -0.249327 0.726723 0.640086
vn -0.249327 0.726723 0.640086
vn -0.279266 0.163726 0.946153
vn -0.279266 0.163726 0.946153
vn -0.279266 0.163726 0.946153
vn 0.279265 0.163724 0.946153
vn 0.279265 0.163724 0.946153
vn 0.279265 0.163724 0.946153
vn -0.631449 -0.702694 0.327862
vn -0.631449 -0.702694 0.327862
vn -0.631449 -0.702694 0.327862
vn 0.631447 -0.702693 0.327866
vn 0.631447 -0.702693 0.327866
vn 0.631447 -0.702693 0.327866
s off
g canopicjar_horus CANOPIC_JARS
usemtl initialShadingGroup
f 1/113/1 2/114/2 10/115/3 9/116/4
f 2/114/5 3/117/6 11/118/7 10/115/8
f 3/1/9 4/2/10 12/3/11 11/4/12
f 4/2/13 5/5/14 13/6/15 12/3/16
f 13/122/17 5/123/18 6/124/19 14/125/20
f 14/125/21 6/124/22 7/126/23 15/127/24
f 7/10/25 8/11/26 16/12/27 15/13/28
f 8/11/29 1/14/30 9/15/31 16/12/32
s 1
f 2/57/33 1/58/34 17/59/35
f 3/61/36 2/57/33 17/59/35
f 4/63/37 3/61/36 17/59/35
f 5/65/38 4/63/37 17/59/35
f 6/64/39 5/65/38 17/59/35
f 7/62/40 6/64/39 17/59/35
f 8/60/41 7/62/40 17/59/35
f 1/58/34 8/60/41 17/59/35
s 2
f 34/66/42 35/67/43 36/68/44
f 35/67/43 37/71/45 36/68/44
f 37/71/45 38/77/46 36/68/44
f 38/77/46 39/82/47 36/68/44
f 39/82/47 54/87/48 40/83/49 36/68/44
f 40/83/49 58/84/50 41/78/51 36/68/44
f 41/78/51 42/72/52 36/68/44
f 42/72/52 34/66/42 36/68/44
s off
f 9/116/53 10/115/54 19/119/55 18/120/56
f 10/115/57 11/118/58 20/121/59 19/119/60
f 11/4/61 12/3/62 21/7/63 20/8/64
f 12/3/65 13/6/66 22/9/67 21/7/68
f 51/128/69 22/129/70 13/122/71 14/125/72 23/130/73
f 55/131/74 23/130/75 14/125/76 15/127/77 24/132/78
f 15/13/79 16/12/80 25/16/81 24/17/82
f 16/12/83 9/15/84 18/18/85 25/16/86
s 3
f 43/133/87 44/134/88 68/74/89 59/73/90
s 4
f 44/134/91 45/137/92 67/79/93 68/74/94
s 5
f 45/19/95 46/20/96 66/21/97 67/22/98
s 6
f 46/20/99 47/25/100 65/26/101 66/21/102
s 7
f 47/159/103 52/30/104 64/31/105 65/160/106
s 8
f 48/139/107 56/140/108 62/166/109 63/167/110
s 9
f 49/157/111 50/34/112 60/37/113 61/162/114
s 10
f 50/34/115 43/35/116 59/36/117 60/37/118
s off
f 26/69/119 27/150/120 35/67/121 34/66/122
f 27/150/123 28/151/124 37/71/125 35/67/126
f 28/151/127 29/80/128 38/77/129 37/71/130
f 29/80/131 30/85/132 39/82/133 38/77/134
s 11
f 30/85/135 53/89/136 54/87/137 39/82/138
s 12
f 31/88/139 57/86/140 58/84/141 40/83/142
s off
f 32/81/143 33/76/144 42/72/145 41/78/146
f 33/76/147 26/69/148 34/66/149 42/72/150
s 3
f 69/135/151 70/136/152 44/134/88 43/133/87
s 4
f 70/136/153 71/138/154 45/137/92 44/134/91
s 5
f 71/23/155 72/24/156 46/20/96 45/19/95
s 6
f 72/24/157 73/29/158 47/25/100 46/20/99
s 7
f 73/158/159 74/145/160 52/30/104 47/159/103
s 8
f 75/142/161 76/143/162 56/140/108 48/139/107
s 9
f 77/156/163 78/38/164 50/34/112 49/157/111
s 10
f 78/38/165 69/39/166 43/35/116 50/34/115
s 7
f 52/155/104 74/154/160 75/142/167 48/139/168
f 63/167/169 64/168/105 52/155/104 48/139/168
s 11
f 54/87/137 53/89/136 31/88/170 40/83/171
s 8
f 56/47/108 76/153/162 77/44/172 49/42/173
f 61/43/174 62/46/109 56/47/108 49/42/173
s 12
f 58/84/141 57/86/140 32/81/175 41/78/176
s 10
f 60/37/118 59/36/117 26/40/177 33/41/178
s 9
f 61/162/114 60/37/113 33/41/179 32/163/180
s 8
f 57/48/181 62/46/109 61/43/174 32/45/182
s off
f 80/49/183 79/50/184 81/51/185 82/52/186
f 84/53/187 83/54/188 80/55/189 82/56/190
s 7
f 65/160/106 64/31/105 53/33/191 30/161/192
s 6
f 66/21/102 65/26/101 30/32/193 29/27/194
s 5
f 67/22/98 66/21/97 29/27/195 28/28/196
s 4
f 68/74/94 67/79/93 28/75/197 27/70/198
s 3
f 59/73/90 68/74/89 27/70/199 26/152/200
f 18/93/201 19/94/202 70/95/152 69/96/151
s 4
f 19/94/203 20/97/204 71/98/154 70/95/153
s 5
f 20/97/205 21/101/206 72/102/156 71/98/155
s 6
f 21/101/207 22/105/208 73/106/158 72/102/157
s 7
f 22/105/209 51/109/210 74/110/160 73/106/159
f 75/112/167 74/110/160 51/109/210 23/111/211
s 8
f 23/111/212 55/108/213 76/107/162 75/112/161
f 77/104/172 76/107/162 55/108/213 24/103/214
s 9
f 24/103/215 25/99/216 78/100/164 77/104/163
s 10
f 25/99/217 18/93/218 69/96/166 78/100/165
s off
f 62/141/219 57/146/220 81/147/221 79/144/222
f 57/86/223 31/88/224 82/90/225 81/91/226
f 53/148/227 64/164/228 83/165/229 84/149/230
f 31/88/231 53/89/232 84/92/233 82/90/234
f 64/169/235 63/170/236 83/171/237
f 63/172/238 62/173/239 79/174/240
f 83/175/241 63/176/242 80/177/243
f 63/178/244 79/179/245 80/180/246
